<svg width="81" height="81" viewBox="0 0 81 81" fill="none" xmlns="http://www.w3.org/2000/svg">
<circle opacity="0.2" cx="40.5" cy="40.5" r="40.5" fill="#B7F594"/>
<path d="M60.6141 58.8446L54.2889 47.889C55.338 47.0056 56.063 45.7491 56.2567 44.3254C56.3882 43.3572 56.8862 42.4947 57.6588 41.8967C59.6615 40.3464 60.3903 37.6266 59.4311 35.2825C59.061 34.3782 59.061 33.3823 59.4311 32.4781C60.3903 30.134 59.6615 27.4143 57.6588 25.864C56.8862 25.2659 56.3881 24.4034 56.2567 23.4353C55.9153 20.9257 53.9242 18.9346 51.4146 18.5934C50.4466 18.4617 49.5841 17.9638 48.9861 17.1912C47.4357 15.1884 44.7162 14.4597 42.3719 15.4189C41.4676 15.789 40.4717 15.789 39.5675 15.4189C37.2236 14.4596 34.5037 15.1884 32.9533 17.1912C32.3553 17.9638 31.4928 18.4617 30.5246 18.5934C28.015 18.9347 26.024 20.9257 25.6828 23.4354C25.5511 24.4035 25.0532 25.266 24.2806 25.864C22.2778 27.4144 21.549 30.1342 22.5083 32.4782C22.8784 33.3824 22.8784 34.3784 22.5083 35.2826C21.549 37.6266 22.2778 40.3464 24.2806 41.8968C25.0532 42.4948 25.5511 43.3573 25.6828 44.3254C25.8789 45.7679 26.6208 47.0383 27.6922 47.9233L21.3867 58.8446C21.1892 59.1867 21.2172 59.6141 21.4577 59.9274C21.6982 60.2408 22.1036 60.3786 22.4854 60.2763L27.9815 58.8036L29.4478 64.2761C29.5501 64.6577 29.8721 64.94 30.2638 64.9916C30.3065 64.9973 30.3492 65 30.3915 65C30.7371 65 31.0611 64.8164 31.237 64.5116L38.041 52.7269C38.5569 52.6714 39.0707 52.5451 39.5674 52.3417C40.4717 51.9716 41.4677 51.9716 42.3718 52.3417C42.8897 52.5538 43.4261 52.683 43.9642 52.7346L50.7637 64.5116C50.9397 64.8165 51.2636 65 51.6092 65C51.6516 65 51.6942 64.9973 51.737 64.9916C52.1287 64.94 52.4507 64.6577 52.553 64.2761L54.0194 58.8036L59.5155 60.2763C59.8968 60.3786 60.3026 60.241 60.5431 59.9274C60.7835 59.6141 60.8116 59.1867 60.6141 58.8446ZM30.7243 61.4929L29.6154 57.3547C29.5483 57.1045 29.3847 56.8911 29.1604 56.7616C28.936 56.6321 28.6696 56.5971 28.4192 56.6641L24.2574 57.7792L29.3893 48.8904C29.7522 49.0202 30.132 49.1139 30.5245 49.1673C31.4927 49.299 32.3552 49.7969 32.9532 50.5695C33.7122 51.55 34.7517 52.2244 35.8901 52.5456L30.7243 61.4929ZM38.8275 50.5339C37.2931 51.1619 35.5128 50.6848 34.4979 49.3739C33.5843 48.1936 32.2666 47.4328 30.7877 47.2318C29.1449 47.0084 27.8415 45.7051 27.6182 44.0622C27.4171 42.5833 26.6564 41.2657 25.4761 40.352C24.1651 39.3372 23.688 37.5567 24.316 36.0224C24.8814 34.6411 24.8814 33.1196 24.316 31.7383C23.688 30.204 24.1651 28.4235 25.4761 27.4087C26.6564 26.4951 27.4171 25.1775 27.6182 23.6985C27.8416 22.0558 29.1449 20.7523 30.7877 20.529C32.2666 20.328 33.5843 19.5672 34.4979 18.3869C35.2136 17.4623 36.3098 16.9525 37.4322 16.9525C37.9013 16.9525 38.3751 17.0417 38.8274 17.2268C40.2088 17.7921 41.7303 17.7921 43.1116 17.2268C44.6458 16.5988 46.4264 17.0759 47.4412 18.3869C48.3548 19.5672 49.6724 20.328 51.1512 20.529C52.7939 20.7523 54.0974 22.0557 54.3207 23.6985C54.5218 25.1775 55.2826 26.4951 56.4629 27.4087C57.7739 28.4235 58.2509 30.2039 57.623 31.7383C57.0577 33.1196 57.0577 34.6411 57.623 36.0224C58.2509 37.5567 57.7738 39.3372 56.4629 40.352C55.2826 41.2656 54.5218 42.5832 54.3207 44.0621C54.0974 45.705 52.7939 47.0084 51.1513 47.2317C49.6723 47.4327 48.3547 48.1934 47.4411 49.3738C46.4262 50.6849 44.6458 51.1618 43.1116 50.5338C41.7302 49.9686 40.2089 49.9686 38.8275 50.5339ZM53.5815 56.6641C53.0602 56.5243 52.525 56.8337 52.3853 57.3547L51.2763 61.4929L46.1017 52.5301C47.2194 52.2031 48.2387 51.5349 48.986 50.5695C49.584 49.7968 50.4465 49.2989 51.4145 49.1673C51.8254 49.1114 52.2222 49.0105 52.6003 48.8712L57.7432 57.7792L53.5815 56.6641Z" fill="#B7F594"/>
<path d="M36.531 30.2674L33.4921 33.3062C33.309 33.4893 33.2061 33.7378 33.2061 33.9968C33.2061 34.2558 33.309 34.5043 33.4921 34.6875L39.1915 40.387C39.3747 40.5701 39.6231 40.673 39.8822 40.673C40.1412 40.673 40.3897 40.5701 40.5728 40.387L48.5086 32.4512C48.89 32.0698 48.89 31.4513 48.5086 31.0699L45.4698 28.0311C45.2866 27.8479 45.0382 27.745 44.7792 27.745C44.5202 27.745 44.2717 27.8479 44.0886 28.0311L39.8823 32.2375L37.9124 30.2675C37.7293 30.0844 37.4808 29.9815 37.2218 29.9815C36.9626 29.9814 36.7141 30.0843 36.531 30.2674ZM39.1914 34.3094C39.3746 34.4925 39.623 34.5955 39.8821 34.5955C40.1411 34.5955 40.3896 34.4925 40.5727 34.3094L44.779 30.103L46.4366 31.7605L39.8821 38.3151L35.564 33.9969L37.2216 32.3394L39.1914 34.3094Z" fill="#B7F594"/>
<path d="M53.6971 34.2092C53.6971 31.6146 52.9196 29.1193 51.4486 26.993C50.0122 24.9168 48.0169 23.3292 45.6784 22.4019C45.1768 22.2031 44.6093 22.4484 44.4105 22.9498C44.2116 23.4513 44.457 24.0189 44.9583 24.2178C49.0803 25.8523 51.7438 29.7742 51.7438 34.2092C51.7438 40.1333 46.9241 44.953 41 44.953C35.0758 44.953 30.2562 40.1333 30.2562 34.2092C30.2562 29.7741 32.9196 25.8522 37.0417 24.2177C37.5431 24.0188 37.7885 23.4512 37.5896 22.9497C37.3907 22.4483 36.823 22.2029 36.3216 22.4018C33.9831 23.3292 31.9878 24.9167 30.5513 26.9929C29.0803 29.1192 28.3027 31.6145 28.3027 34.2091C28.3027 41.2103 33.9987 46.9063 41 46.9063C48.0012 46.9064 53.6971 41.2104 53.6971 34.2092Z" fill="#B7F594"/>
<path d="M41.0004 23.4649C41.2573 23.4649 41.5093 23.3614 41.6908 23.1787C41.8725 22.9971 41.9771 22.746 41.9771 22.4882C41.9771 22.2313 41.8726 21.9793 41.6908 21.7977C41.5093 21.616 41.2573 21.5115 41.0004 21.5115C40.7435 21.5115 40.4915 21.616 40.3099 21.7977C40.1282 21.9793 40.0237 22.2313 40.0237 22.4882C40.0237 22.746 40.1282 22.9971 40.3099 23.1787C40.4915 23.3614 40.7435 23.4649 41.0004 23.4649Z" fill="#B7F594"/>
</svg>
