<svg width="81" height="81" viewBox="0 0 81 81" fill="none" xmlns="http://www.w3.org/2000/svg">
<circle opacity="0.2" cx="40.5" cy="40.5" r="40.5" fill="#B7F594"/>
<path d="M39.4379 35.781C39.6451 35.781 39.8438 35.6987 39.9903 35.5522C40.1368 35.4057 40.2192 35.207 40.2192 34.9998V27.449L40.7543 28.199C40.877 28.362 41.0587 28.4706 41.2604 28.5014C41.4621 28.5323 41.6679 28.483 41.8337 28.3641C41.9996 28.2452 42.1123 28.0661 42.1478 27.8652C42.1834 27.6643 42.1389 27.4574 42.0238 27.2888L40.0707 24.5544C39.9984 24.4536 39.9031 24.3715 39.7927 24.3148C39.6823 24.2582 39.56 24.2286 39.4359 24.2286C39.3119 24.2286 39.1896 24.2582 39.0792 24.3148C38.9688 24.3715 38.8735 24.4536 38.8012 24.5544L36.8481 27.2888C36.733 27.4574 36.6885 27.6643 36.7241 27.8652C36.7596 28.0661 36.8723 28.2452 37.0382 28.3641C37.204 28.483 37.4098 28.5323 37.6115 28.5014C37.8132 28.4706 37.9949 28.362 38.1176 28.199L38.6567 27.449V34.9998C38.6567 35.207 38.739 35.4057 38.8855 35.5522C39.032 35.6987 39.2307 35.781 39.4379 35.781ZM36.4613 45.8591C36.2764 45.7668 36.0623 45.7515 35.8661 45.8166C35.6698 45.8818 35.5074 46.0221 35.4145 46.2068L33.1254 50.7771L32.9809 49.8513C32.965 49.7487 32.929 49.6503 32.8751 49.5616C32.8211 49.4729 32.7502 49.3957 32.6664 49.3344C32.5826 49.2731 32.4876 49.2289 32.3867 49.2043C32.2858 49.1797 32.1811 49.1753 32.0785 49.1912C31.9759 49.2071 31.8775 49.243 31.7888 49.297C31.7001 49.3509 31.6229 49.4218 31.5616 49.5056C31.5003 49.5894 31.4561 49.6845 31.4315 49.7853C31.4069 49.8862 31.4025 49.9909 31.4184 50.0935L31.9379 53.4334C31.957 53.5555 32.0048 53.6714 32.0774 53.7715C32.15 53.8716 32.2454 53.953 32.3556 54.009C32.4658 54.0651 32.5877 54.0942 32.7114 54.0939C32.835 54.0937 32.9568 54.0641 33.0668 54.0076L36.0199 52.488C36.1112 52.4411 36.1924 52.3766 36.2588 52.2983C36.3252 52.22 36.3755 52.1294 36.4069 52.0317C36.4383 51.9339 36.4501 51.8309 36.4417 51.7286C36.4333 51.6263 36.4048 51.5266 36.3578 51.4353C36.3109 51.344 36.2464 51.2628 36.1681 51.1964C36.0898 51.13 35.9992 51.0797 35.9014 51.0483C35.8037 51.017 35.7007 51.0051 35.5984 51.0136C35.4961 51.022 35.3964 51.0505 35.3051 51.0974L34.477 51.5232L36.7895 46.906C36.8833 46.7234 36.9015 46.5112 36.8401 46.3153C36.7787 46.1194 36.6426 45.9555 36.4613 45.8591ZM43.766 56.1169C43.8658 56.1896 43.9813 56.2376 44.1032 56.257C44.2251 56.2764 44.3498 56.2666 44.4672 56.2285C44.5846 56.1904 44.6913 56.125 44.7785 56.0377C44.8658 55.9504 44.9311 55.8437 44.9692 55.7263L45.9496 52.4959C46.0097 52.2975 45.9885 52.0833 45.8907 51.9005C45.7929 51.7178 45.6265 51.5813 45.4281 51.5212C45.2297 51.4612 45.0156 51.4823 44.8328 51.5801C44.6501 51.6779 44.5136 51.8443 44.4535 52.0427L44.1254 53.0974L41.141 45.5349C41.1038 45.4388 41.0479 45.3511 40.9766 45.2767C40.9054 45.2023 40.8201 45.1428 40.7257 45.1015C40.6313 45.0602 40.5297 45.038 40.4266 45.0361C40.3236 45.0342 40.2213 45.0528 40.1254 45.0906C40.0296 45.1285 39.9422 45.185 39.8683 45.2567C39.7944 45.3285 39.7354 45.4142 39.6947 45.5088C39.6541 45.6035 39.6325 45.7053 39.6314 45.8083C39.6302 45.9113 39.6494 46.0136 39.6879 46.1091L42.5317 53.3201L41.9574 52.9294C41.8738 52.8699 41.7793 52.8275 41.6793 52.8045C41.5793 52.7815 41.4757 52.7785 41.3745 52.7955C41.2733 52.8126 41.1764 52.8494 41.0895 52.9039C41.0025 52.9584 40.9271 53.0294 40.8676 53.113C40.8081 53.1967 40.7656 53.2912 40.7427 53.3912C40.7197 53.4912 40.7166 53.5948 40.7337 53.696C40.7507 53.7972 40.7875 53.894 40.842 53.981C40.8965 54.068 40.9676 54.1434 41.0512 54.2029L43.766 56.1169ZM42.7074 36.2927C42.7538 36.3843 42.8178 36.4659 42.8957 36.5328C42.9736 36.5997 43.064 36.6505 43.1616 36.6824C43.2592 36.7144 43.3621 36.7267 43.4645 36.7188C43.5668 36.711 43.6667 36.683 43.7582 36.6365L50.3754 33.281L49.9262 34.1404C49.8798 34.232 49.8518 34.3318 49.844 34.4341C49.8361 34.5365 49.8485 34.6394 49.8804 34.737C49.9124 34.8345 49.9632 34.9249 50.03 35.0028C50.0968 35.0807 50.1784 35.1447 50.2699 35.1912C50.3615 35.2376 50.4613 35.2655 50.5637 35.2734C50.666 35.2812 50.7689 35.2688 50.8665 35.2369C50.9641 35.205 51.0544 35.1542 51.1324 35.0873C51.2103 35.0205 51.2743 34.939 51.3207 34.8474L52.8442 31.8435C52.899 31.7349 52.9277 31.615 52.9281 31.4934C52.9284 31.3718 52.9003 31.2517 52.8461 31.1428C52.7918 31.034 52.7129 30.9393 52.6156 30.8663C52.5183 30.7933 52.4053 30.744 52.2856 30.7224L49.0277 30.156C48.8237 30.1198 48.6135 30.1661 48.4436 30.2847C48.2736 30.4034 48.1578 30.5847 48.1215 30.7888C48.0852 30.9929 48.1315 31.2031 48.2502 31.373C48.3689 31.543 48.5502 31.6588 48.7543 31.6951L49.7074 31.863L43.0668 35.2419C42.9738 35.2869 42.8907 35.3499 42.8223 35.4272C42.7538 35.5045 42.7013 35.5947 42.6679 35.6924C42.6345 35.7901 42.6208 35.8935 42.6276 35.9965C42.6343 36.0996 42.6615 36.2002 42.7074 36.2927ZM34.7191 40.8513C34.69 40.7528 34.6418 40.6609 34.5771 40.581C34.5124 40.5011 34.4326 40.4348 34.3423 40.3858C34.2519 40.3368 34.1528 40.3061 34.0505 40.2955C33.9483 40.2849 33.845 40.2946 33.7465 40.324L25.0902 42.8904L25.6801 42.1091C25.7892 41.9432 25.8311 41.7418 25.7971 41.5461C25.7631 41.3504 25.6558 41.175 25.497 41.0555C25.3383 40.9361 25.14 40.8816 24.9425 40.9032C24.7451 40.9248 24.5632 41.0208 24.434 41.1716L22.4106 43.8474C22.3371 43.9443 22.2873 44.0571 22.2651 44.1767C22.2429 44.2962 22.2489 44.4193 22.2827 44.5362C22.3164 44.653 22.377 44.7603 22.4596 44.8496C22.5421 44.9389 22.6444 45.0077 22.7582 45.0505L25.8598 46.2224C26.0514 46.2862 26.2602 46.2734 26.4425 46.1866C26.6248 46.0998 26.7665 45.9458 26.8377 45.7568C26.9089 45.5679 26.9042 45.3587 26.8246 45.1731C26.745 44.9875 26.5966 44.84 26.4106 44.7615L25.4887 44.4138L34.1918 41.8357C34.2917 41.8067 34.3848 41.758 34.4656 41.6925C34.5464 41.627 34.6134 41.5461 34.6625 41.4544C34.7116 41.3627 34.7419 41.2621 34.7516 41.1586C34.7614 41.055 34.7503 40.9506 34.7191 40.8513ZM53.9223 52.8513C53.9361 53.0489 54.0245 53.2338 54.1696 53.3687C54.3146 53.5036 54.5055 53.5784 54.7035 53.5779H54.7582L59.4145 53.2537C59.5381 53.2451 59.6579 53.2073 59.764 53.1433C59.8701 53.0794 59.9594 52.9911 60.0247 52.8857C60.0899 52.7804 60.1292 52.6611 60.1392 52.5376C60.1493 52.4141 60.1298 52.29 60.0824 52.1755L58.352 48.0232C58.2684 47.8377 58.1158 47.6921 57.9266 47.6173C57.7374 47.5426 57.5265 47.5446 57.3387 47.623C57.151 47.7013 57.0012 47.8499 56.9212 48.0369C56.8413 48.224 56.8374 48.4349 56.9106 48.6248L57.6918 50.5349L44.4106 42.2927C44.3234 42.2386 44.2263 42.2022 44.1251 42.1856C44.0238 42.1689 43.9202 42.1724 43.8203 42.1958C43.7204 42.2192 43.626 42.2621 43.5426 42.3219C43.4593 42.3818 43.3885 42.4575 43.3344 42.5447C43.2803 42.6319 43.2439 42.7289 43.2272 42.8302C43.2106 42.9315 43.2141 43.035 43.2375 43.135C43.2609 43.2349 43.3037 43.3292 43.3636 43.4126C43.4234 43.496 43.4991 43.5667 43.5863 43.6209L56.891 51.863L54.6567 52.0193C54.5536 52.0253 54.4528 52.0516 54.3601 52.0967C54.2673 52.1418 54.1843 52.2049 54.1161 52.2823C54.0478 52.3596 53.9955 52.4497 53.9622 52.5474C53.929 52.6451 53.9154 52.7484 53.9223 52.8513ZM32.7465 32.0974C32.9506 32.0612 33.1319 31.9453 33.2506 31.7754C33.3693 31.6054 33.4156 31.3953 33.3793 31.1912C33.343 30.9871 33.2272 30.8057 33.0572 30.6871C32.8873 30.5684 32.6771 30.5221 32.4731 30.5584L29.2191 31.1326C29.0994 31.1542 28.9864 31.2034 28.8891 31.2764C28.7918 31.3494 28.7129 31.4441 28.6586 31.553C28.6044 31.6619 28.5763 31.7819 28.5766 31.9036C28.577 32.0252 28.6057 32.1451 28.6606 32.2537L30.184 35.2576C30.2304 35.3491 30.2944 35.4307 30.3724 35.4975C30.4503 35.5643 30.5406 35.6152 30.6382 35.6471C30.7358 35.679 30.8387 35.6914 30.941 35.6835C31.0434 35.6757 31.1432 35.6477 31.2348 35.6013C31.3263 35.5549 31.4079 35.4909 31.4747 35.413C31.5415 35.335 31.5924 35.2447 31.6243 35.1471C31.6562 35.0496 31.6686 34.9466 31.6607 34.8443C31.6529 34.7419 31.6249 34.6421 31.5785 34.5505L31.1371 33.6794L35.3559 35.8201C35.4474 35.8665 35.5472 35.8944 35.6496 35.9023C35.752 35.9101 35.8549 35.8977 35.9525 35.8658C36.05 35.8339 36.1404 35.7831 36.2183 35.7162C36.2962 35.6494 36.3602 35.5679 36.4067 35.4763C36.4531 35.3848 36.481 35.2849 36.4889 35.1826C36.4967 35.0802 36.4843 34.9773 36.4524 34.8797C36.4205 34.7822 36.3697 34.6918 36.3028 34.6139C36.236 34.536 36.1545 34.472 36.0629 34.4255L31.7934 32.2654L32.7465 32.0974Z" fill="#B7F594"/>
<path d="M39.4375 43.5155C41.1634 43.5155 42.5625 42.1164 42.5625 40.3905C42.5625 38.6646 41.1634 37.2655 39.4375 37.2655C37.7116 37.2655 36.3125 38.6646 36.3125 40.3905C36.3125 42.1164 37.7116 43.5155 39.4375 43.5155Z" fill="#B7F594"/>
<path d="M39.4375 22.8124C40.7319 22.8124 41.7812 21.763 41.7812 20.4686C41.7812 19.1742 40.7319 18.1249 39.4375 18.1249C38.1431 18.1249 37.0938 19.1742 37.0938 20.4686C37.0938 21.763 38.1431 22.8124 39.4375 22.8124Z" fill="#B7F594"/>
<path d="M30.8438 59.9218C31.3073 59.9218 31.7604 59.7843 32.1459 59.5268C32.5313 59.2692 32.8317 58.9032 33.0091 58.4749C33.1865 58.0467 33.2329 57.5754 33.1425 57.1208C33.052 56.6661 32.8288 56.2485 32.501 55.9207C32.1733 55.5929 31.7556 55.3697 31.301 55.2793C30.8464 55.1889 30.3751 55.2353 29.9468 55.4127C29.5186 55.5901 29.1525 55.8905 28.895 56.2759C28.6375 56.6613 28.5 57.1145 28.5 57.578C28.5 58.1996 28.7469 58.7957 29.1865 59.2353C29.626 59.6748 30.2221 59.9218 30.8438 59.9218ZM30.8438 56.7968C30.9983 56.7968 31.1493 56.8426 31.2778 56.9284C31.4063 57.0143 31.5064 57.1363 31.5655 57.279C31.6247 57.4218 31.6401 57.5789 31.61 57.7304C31.5798 57.882 31.5054 58.0212 31.3962 58.1304C31.2869 58.2397 31.1477 58.3141 30.9962 58.3442C30.8446 58.3744 30.6875 58.3589 30.5448 58.2998C30.402 58.2407 30.28 58.1405 30.1942 58.012C30.1083 57.8836 30.0625 57.7325 30.0625 57.578C30.0625 57.3708 30.1448 57.1721 30.2913 57.0256C30.4378 56.8791 30.6365 56.7968 30.8438 56.7968ZM48.8125 59.5311C48.8125 59.0676 48.675 58.6144 48.4175 58.229C48.16 57.8436 47.7939 57.5432 47.3657 57.3658C46.9374 57.1884 46.4662 57.142 46.0115 57.2324C45.5569 57.3228 45.1392 57.5461 44.8115 57.8738C44.4837 58.2016 44.2605 58.6192 44.17 59.0739C44.0796 59.5285 44.126 59.9998 44.3034 60.428C44.4808 60.8563 44.7812 61.2224 45.1666 61.4799C45.5521 61.7374 46.0052 61.8749 46.4688 61.8749C47.0904 61.8749 47.6865 61.6279 48.126 61.1884C48.5656 60.7489 48.8125 60.1527 48.8125 59.5311ZM46.4688 60.3124C46.3142 60.3124 46.1632 60.2666 46.0347 60.1807C45.9062 60.0949 45.8061 59.9729 45.747 59.8301C45.6878 59.6873 45.6724 59.5303 45.7025 59.3787C45.7327 59.2272 45.8071 59.088 45.9163 58.9787C46.0256 58.8694 46.1648 58.795 46.3163 58.7649C46.4679 58.7347 46.625 58.7502 46.7677 58.8093C46.9105 58.8685 47.0325 58.9686 47.1183 59.0971C47.2042 59.2256 47.25 59.3766 47.25 59.5311C47.25 59.7383 47.1677 59.937 47.0212 60.0836C46.8747 60.2301 46.676 60.3124 46.4688 60.3124Z" fill="#B7F594"/>
<path d="M18.3437 48.3319C19.6382 48.3319 20.6875 47.2826 20.6875 45.9882C20.6875 44.6937 19.6382 43.6444 18.3437 43.6444C17.0493 43.6444 16 44.6937 16 45.9882C16 47.2826 17.0493 48.3319 18.3437 48.3319Z" fill="#B7F594"/>
<path d="M23.0312 29.453C23.0312 29.9166 23.1687 30.3697 23.4262 30.7551C23.6838 31.1405 24.0498 31.441 24.4781 31.6183C24.9064 31.7957 25.3776 31.8422 25.8322 31.7517C26.2869 31.6613 26.7045 31.4381 27.0323 31.1103C27.3601 30.7825 27.5833 30.3649 27.6737 29.9102C27.7642 29.4556 27.7177 28.9844 27.5403 28.5561C27.363 28.1278 27.0625 27.7618 26.6771 27.5042C26.2917 27.2467 25.8386 27.1093 25.375 27.1093C24.7534 27.1093 24.1573 27.3562 23.7177 27.7957C23.2782 28.2353 23.0312 28.8314 23.0312 29.453ZM26.1563 29.453C26.1563 29.6075 26.1104 29.7586 26.0246 29.887C25.9387 30.0155 25.8167 30.1157 25.674 30.1748C25.5312 30.2339 25.3741 30.2494 25.2226 30.2192C25.071 30.1891 24.9318 30.1147 24.8226 30.0054C24.7133 29.8962 24.6389 29.757 24.6088 29.6054C24.5786 29.4539 24.5941 29.2968 24.6532 29.154C24.7124 29.0113 24.8125 28.8893 24.941 28.8034C25.0694 28.7176 25.2205 28.6718 25.375 28.6718C25.5822 28.6718 25.7809 28.7541 25.9274 28.9006C26.0739 29.0471 26.1563 29.2458 26.1563 29.453ZM58.9688 29.453C58.9688 28.9895 58.8313 28.5363 58.5738 28.1509C58.3162 27.7655 57.9502 27.4651 57.5219 27.2877C57.0937 27.1103 56.6224 27.0639 56.1678 27.1543C55.7131 27.2447 55.2955 27.4679 54.9677 27.7957C54.6399 28.1235 54.4167 28.5411 54.3263 28.9958C54.2359 29.4504 54.2823 29.9217 54.4597 30.3499C54.6371 30.7782 54.9375 31.1442 55.3229 31.4018C55.7083 31.6593 56.1615 31.7968 56.625 31.7968C57.2466 31.7968 57.8427 31.5498 58.2823 31.1103C58.7218 30.6707 58.9688 30.0746 58.9688 29.453ZM55.8438 29.453C55.8438 29.2985 55.8896 29.1474 55.9754 29.019C56.0613 28.8905 56.1833 28.7904 56.326 28.7312C56.4688 28.6721 56.6259 28.6566 56.7774 28.6868C56.929 28.7169 57.0682 28.7913 57.1774 28.9006C57.2867 29.0098 57.3611 29.149 57.3912 29.3006C57.4214 29.4521 57.4059 29.6092 57.3468 29.752C57.2877 29.8947 57.1875 30.0167 57.059 30.1026C56.9306 30.1884 56.7795 30.2343 56.625 30.2343C56.4178 30.2343 56.2191 30.1519 56.0726 30.0054C55.9261 29.8589 55.8438 29.6602 55.8438 29.453Z" fill="#B7F594"/>
<path d="M63.6562 56.7968C64.9507 56.7968 66 55.7474 66 54.453C66 53.1586 64.9507 52.1093 63.6562 52.1093C62.3618 52.1093 61.3125 53.1586 61.3125 54.453C61.3125 55.7474 62.3618 56.7968 63.6562 56.7968Z" fill="#B7F594"/>
</svg>
