<svg width="81" height="81" viewBox="0 0 81 81" fill="none" xmlns="http://www.w3.org/2000/svg">
<circle opacity="0.2" cx="40.5" cy="40.5" r="40.5" fill="#B7F594"/>
<path d="M22.2516 26.713C19.5366 26.713 18.1267 28.1345 17.4476 29.4928C16.7685 30.851 16.7786 32.186 16.7786 32.186V47.0247C16.7786 47.0247 16.7685 48.3598 17.4476 49.718C18.1267 51.0762 19.5453 52.4977 22.2516 52.4977H28.9183V50.9348H22.2516C20.276 50.9348 19.3417 50.0057 18.849 49.0202C18.3562 48.0346 18.3415 47.0247 18.3415 47.0247V32.186C18.3415 32.186 18.3562 31.1761 18.849 30.1906C19.3417 29.205 20.2873 28.2759 22.2516 28.2759H39.4375C41.4158 28.2759 42.3473 29.205 42.8401 30.1906C43.3329 31.1761 43.3418 32.186 43.3418 32.186V33.7489H44.9047V32.186C44.9047 32.186 44.9149 30.851 44.2357 29.4928C43.5566 28.1345 42.15 26.713 39.4375 26.713H22.2516Z" fill="#B7F594"/>
<path d="M30.8442 15.7786C26.1283 15.7786 22.2587 19.6571 22.257 24.3715L22.2512 27.4973H23.8141L23.8199 24.3715C23.8213 20.5118 26.9838 17.3414 30.8442 17.3414C34.7049 17.3415 37.8757 20.5102 37.8743 24.3715V27.4973H39.4372V24.3715C39.4389 19.6545 35.5598 15.7786 30.8442 15.7786Z" fill="#B7F594"/>
<path d="M30.845 20.4614C28.5643 20.4614 26.9415 22.1834 26.9407 24.3715V27.4973H28.5036V24.3715C28.5041 22.9416 29.5164 22.0243 30.845 22.0243C32.162 22.0243 33.1927 22.9448 33.1922 24.3715L33.1865 27.4973H34.7493L34.7551 24.3715C34.7559 22.1844 33.1276 20.4614 30.845 20.4614Z" fill="#B7F594"/>
<path d="M39.4372 32.9702C39.2563 32.97 39.081 33.0326 38.9411 33.1472C38.8013 33.2619 38.7055 33.4215 38.6701 33.5988L38.3702 35.0867C37.0649 35.4267 35.8233 35.948 34.6678 36.6439L33.3759 35.7903C33.2256 35.6901 33.0451 35.6451 32.8653 35.663C32.6855 35.6809 32.5174 35.7605 32.3898 35.8884L29.0737 39.2045C28.9472 39.3318 28.8685 39.4987 28.8506 39.6773C28.8328 39.8558 28.8769 40.035 28.9756 40.1849L29.8234 41.4536C29.1323 42.6189 28.6203 43.8711 28.2893 45.1849L26.7841 45.4848C26.6068 45.5202 26.4472 45.6159 26.3325 45.7558C26.2179 45.8957 26.1553 46.071 26.1555 46.2518V50.9347C26.1553 51.1156 26.2179 51.2909 26.3325 51.4308C26.4472 51.5706 26.6068 51.6664 26.7841 51.7018L28.272 51.9959C28.612 53.3037 29.1378 54.5524 29.8349 55.7099L28.9756 57.0017C28.8754 57.1521 28.8304 57.3325 28.8483 57.5123C28.8662 57.6922 28.9458 57.8602 29.0737 57.9879L32.3898 61.2982C32.5174 61.4261 32.6855 61.5057 32.8653 61.5236C33.0451 61.5415 33.2256 61.4965 33.3759 61.3963L34.6389 60.5543C35.8042 61.2451 37.0624 61.7575 38.376 62.0883L38.6701 63.5878C38.7055 63.7651 38.8013 63.9247 38.9411 64.0394C39.081 64.154 39.2563 64.2165 39.4372 64.2164H44.1258C44.3067 64.2165 44.482 64.154 44.6218 64.0394C44.7617 63.9247 44.8575 63.7651 44.8928 63.5878L45.187 62.1056C46.5121 61.7792 47.7768 61.2698 48.9529 60.5773L50.187 61.3963C50.3374 61.4965 50.5178 61.5415 50.6976 61.5236C50.8775 61.5057 51.0455 61.4261 51.1732 61.2982L54.4893 57.9879C54.6171 57.8602 54.6968 57.6922 54.7147 57.5124C54.7325 57.3325 54.6875 57.1521 54.5873 57.0017L53.7626 55.7618C54.455 54.5849 54.9708 53.3219 55.2967 51.9959L56.7788 51.7018C56.9562 51.6664 57.1158 51.5706 57.2304 51.4308C57.345 51.2909 57.4076 51.1156 57.4074 50.9347V46.2519C57.4076 46.071 57.345 45.8957 57.2304 45.7558C57.1158 45.616 56.9562 45.5202 56.7788 45.4848L55.3255 45.1965C54.9828 43.8766 54.4516 42.62 53.7453 41.4536L54.5873 40.1849C54.686 40.035 54.7302 39.8558 54.7123 39.6773C54.6945 39.4987 54.6157 39.3318 54.4893 39.2045L51.1732 35.8884C51.0455 35.7605 50.8775 35.6809 50.6976 35.663C50.5178 35.6451 50.3374 35.6901 50.187 35.7903L48.9356 36.6266C47.7646 35.9341 46.507 35.4158 45.187 35.0867L44.8928 33.5988C44.8575 33.4215 44.7617 33.2619 44.6218 33.1472C44.482 33.0326 44.3067 32.97 44.1258 32.9702H39.4372ZM40.0773 34.5331H43.4857L43.7394 35.7903C43.7694 35.9403 43.8428 36.0782 43.9504 36.1869C44.0581 36.2955 44.1953 36.3702 44.345 36.4016C45.8629 36.7152 47.3116 37.3124 48.6126 38.1548C48.7401 38.2368 48.8887 38.2798 49.0402 38.2788C49.1918 38.2778 49.3398 38.2327 49.4661 38.1491L50.5215 37.4455L52.9322 39.8561L52.217 40.9231C52.1319 41.0512 52.0864 41.2017 52.0864 41.3556C52.0864 41.5095 52.1319 41.66 52.217 41.7881C53.0766 43.0837 53.6867 44.5248 54.0164 46.0442C54.0488 46.1929 54.124 46.3288 54.2325 46.4353C54.3411 46.5419 54.4785 46.6144 54.6277 46.644L55.8446 46.892V50.2946L54.5931 50.5483C54.4423 50.5788 54.3039 50.653 54.1952 50.7617C54.0864 50.8705 54.0122 51.0089 53.9818 51.1597C53.6721 52.6848 53.0778 54.1367 52.2343 55.4446C52.1524 55.5721 52.1094 55.7207 52.1105 55.8723C52.1115 56.0238 52.1566 56.1718 52.2403 56.2981L52.9323 57.3305L50.5217 59.7411L49.4893 59.0548C49.3624 58.97 49.2133 58.9242 49.0606 58.9231C48.9079 58.9221 48.7582 58.9658 48.63 59.0489C47.3222 59.8923 45.8702 60.4809 44.3451 60.7906C44.1936 60.8214 44.0546 60.8965 43.9458 61.0063C43.837 61.1162 43.7632 61.2559 43.7338 61.4077L43.4858 62.6534H40.0773L39.8235 61.3905C39.7935 61.2405 39.7202 61.1026 39.6125 60.994C39.5049 60.8853 39.3677 60.8106 39.218 60.7792C37.7049 60.463 36.2641 59.8678 34.9676 59.026C34.8395 58.9429 34.6898 58.8991 34.5371 58.9002C34.3844 58.9012 34.2353 58.947 34.1084 59.0319L33.0414 59.7411L30.6308 57.3305L31.3574 56.2405C31.4435 56.1129 31.4899 55.9627 31.491 55.8088C31.492 55.6549 31.4475 55.5041 31.3632 55.3754C30.513 54.0873 29.909 52.6563 29.5812 51.1481C29.5487 50.9995 29.4736 50.8636 29.365 50.757C29.2564 50.6505 29.1191 50.5779 28.9699 50.5483L27.7184 50.2946V46.892L28.9872 46.6382C29.1371 46.6082 29.275 46.5348 29.3837 46.4272C29.4924 46.3196 29.567 46.1824 29.5985 46.0327C29.9146 44.5196 30.5098 43.0788 31.3517 41.7823C31.4348 41.6542 31.4786 41.5046 31.4775 41.3518C31.4765 41.1991 31.4307 41.05 31.3459 40.923L30.6308 39.8561L33.0414 37.4455L34.1314 38.1721C34.2596 38.2573 34.4101 38.3028 34.564 38.3028C34.7178 38.3028 34.8683 38.2573 34.9965 38.1721C36.2846 37.322 37.7213 36.7179 39.2295 36.3901C39.3782 36.3577 39.5141 36.2825 39.6206 36.1739C39.7272 36.0654 39.7997 35.928 39.8293 35.7788L40.0773 34.5331Z" fill="#B7F594"/>
<path d="M41.7782 38.4375C36.1783 38.4375 31.6223 42.9935 31.6223 48.5934C31.6223 54.1932 36.1783 58.7492 41.7782 58.7492C47.3781 58.7492 51.934 54.1932 51.934 48.5934C51.934 42.9935 47.3781 38.4375 41.7782 38.4375ZM41.7782 40.0004C46.5336 40.0004 50.3769 43.8379 50.3769 48.5934C50.3769 53.3488 46.5336 57.1863 41.7782 57.1863C37.0227 57.1863 33.1852 53.3488 33.1852 48.5934C33.1852 43.8379 37.0227 40.0004 41.7782 40.0004Z" fill="#B7F594"/>
<path d="M41.7786 41.5632C39.6305 41.5632 37.8743 43.3195 37.8743 45.4676C37.8743 47.6157 39.6305 49.3777 41.7786 49.3777C43.9267 49.3777 45.6887 47.6157 45.6887 45.4676C45.6887 43.3195 43.9267 41.5632 41.7786 41.5632ZM41.7786 43.1261C43.0823 43.1261 44.1258 44.1639 44.1258 45.4676C44.1258 46.7712 43.0823 47.8148 41.7786 47.8148C40.4749 47.8148 39.4372 46.7712 39.4372 45.4676C39.4372 44.1639 40.4749 43.1261 41.7786 43.1261Z" fill="#B7F594"/>
<path d="M41.7782 50.1562C38.4218 50.1562 35.6526 52.8286 35.5325 56.1829L37.0954 56.2405C37.186 53.7104 39.2464 51.7191 41.7782 51.7191C44.3116 51.7191 46.3783 53.7087 46.4669 56.2405L48.024 56.1886C47.9066 52.8322 45.1367 50.1562 41.7782 50.1562Z" fill="#B7F594"/>
</svg>
