<svg width="81" height="81" viewBox="0 0 81 81" fill="none" xmlns="http://www.w3.org/2000/svg">
<circle opacity="0.2" cx="40.5" cy="40.5" r="40.5" fill="#B7F594"/>
<g clip-path="url(#clip0_68_1202)">
<path d="M50.2502 44.5582C50.4948 44.5811 50.7327 44.4712 50.8738 44.2702C51.0148 44.0691 51.0372 43.8079 50.9324 43.5858L48.4328 38.2903C49.0449 38.1254 49.5915 37.8014 50.0806 37.3122C51.0152 36.3775 51.353 35.2362 51.1133 33.823C50.9534 32.8789 51.324 31.9841 52.1048 31.4296C53.2735 30.5995 53.8418 29.5536 53.8418 28.232C53.8418 26.9104 53.2736 25.8646 52.1048 25.0345C51.324 24.48 50.9534 23.5852 51.1134 22.6408C51.3526 21.2271 51.0147 20.0859 50.0805 19.1518C49.1459 18.2171 48.0045 17.8792 46.5915 18.119C45.6473 18.279 44.7525 17.9084 44.1979 17.1276C43.3677 15.9588 42.3218 15.3906 41.0004 15.3906C39.6789 15.3906 38.6329 15.9588 37.8028 17.1276C37.2482 17.9084 36.3532 18.2791 35.4092 18.1189C33.9956 17.8798 32.8544 18.2176 31.9202 19.1519C30.986 20.0861 30.6478 21.2277 30.8875 22.641C31.0474 23.5852 30.6768 24.48 29.896 25.0345C28.7272 25.8646 28.159 26.9105 28.159 28.232C28.159 29.5535 28.7272 30.5995 29.896 31.4295C30.6767 31.9841 31.0474 32.8789 30.8874 33.8231C30.6482 35.2367 30.986 36.378 31.9203 37.3122C32.4201 37.812 32.9798 38.1395 33.6078 38.3009L31.1051 43.603C31.0004 43.8251 31.0226 44.0863 31.1637 44.2874C31.3048 44.4885 31.5424 44.5979 31.7874 44.5754L34.6663 44.3048L36.5136 46.5294C36.6448 46.6873 36.8382 46.7763 37.0395 46.7763C37.0791 46.7763 37.1188 46.7729 37.1586 46.7658C37.4004 46.723 37.6006 46.5539 37.6833 46.3226L39.6424 40.8373C40.0594 40.9949 40.5109 41.0733 41.0005 41.0733C41.5048 41.0733 41.9686 40.9899 42.396 40.8227L44.3543 46.3054C44.4369 46.5366 44.6372 46.7059 44.879 46.7486C44.9187 46.7557 44.9585 46.7591 44.998 46.7591C45.1992 46.7591 45.3927 46.6701 45.5239 46.5122L47.3713 44.2876L50.2502 44.5582ZM36.7991 44.7333L35.4873 43.1537C35.3429 42.98 35.1223 42.8887 34.8973 42.9099L32.8532 43.1021L35.0774 38.3899C35.1865 38.3782 35.2967 38.3641 35.4092 38.345C36.3535 38.1851 37.2483 38.5557 37.8027 39.3364C38.0073 39.6245 38.2253 39.8758 38.457 40.0914L36.799 44.7334L36.7991 44.7333ZM38.9174 38.5447C38.1845 37.5128 37.0712 36.9398 35.8523 36.9398C35.6315 36.9398 35.4069 36.9587 35.1809 36.997C34.1965 37.1639 33.5105 36.9689 32.887 36.3454C32.2636 35.7221 32.0687 35.0359 32.2353 34.0513C32.485 32.5773 31.9064 31.1806 30.6876 30.3147C29.8735 29.7366 29.5261 29.1137 29.5261 28.2318C29.5261 27.35 29.8735 26.7271 30.6876 26.1489C31.9065 25.2832 32.4851 23.8863 32.2353 22.4123C32.0684 21.428 32.2632 20.742 32.8869 20.1184C33.5102 19.4949 34.1962 19.3002 35.1809 19.4668C36.6547 19.7168 38.0517 19.1379 38.9174 17.9191C39.4957 17.1051 40.1186 16.7577 41.0004 16.7577C41.8821 16.7577 42.505 17.1051 43.0834 17.9192C43.949 19.1379 45.3456 19.7162 46.82 19.4669C47.8041 19.3 48.4902 19.4948 49.1139 20.1185C49.7373 20.7417 49.9321 21.4278 49.7656 22.4124C49.5158 23.8863 50.0943 25.2832 51.3132 26.1489C52.1273 26.7271 52.4747 27.3501 52.4747 28.2318C52.4747 29.1136 52.1273 29.7365 51.3131 30.3147C50.0943 31.1805 49.5157 32.5773 49.7655 34.0514C49.9324 35.0356 49.7376 35.7217 49.1139 36.3453C48.4906 36.9688 47.8047 37.1638 46.8199 36.997C45.346 36.7471 43.9491 37.3258 43.0834 38.5446C42.505 39.3588 41.8821 39.7062 41.0004 39.7062C40.1186 39.7062 39.4957 39.3588 38.9174 38.5447ZM46.55 43.1365L45.2382 44.716L43.5753 40.0603C43.7951 39.8515 44.0027 39.6111 44.1979 39.3363C44.7525 38.5556 45.6473 38.185 46.5916 38.345C46.7202 38.3668 46.8459 38.3821 46.97 38.3942L49.1839 43.0847L47.1398 42.8926C46.9147 42.8715 46.6942 42.9627 46.5499 43.1365H46.55ZM49.3193 28.2319C49.3193 23.6448 45.5875 19.913 41.0004 19.913C36.4132 19.913 32.6814 23.6448 32.6814 28.2319C32.6814 32.819 36.4132 36.5509 41.0004 36.5509C45.5875 36.5509 49.3193 32.819 49.3193 28.2319ZM41.0004 35.1837C37.1672 35.1837 34.0486 32.0651 34.0486 28.2319C34.0486 24.3987 37.1672 21.2802 41.0004 21.2802C44.8336 21.2802 47.9521 24.3987 47.9521 28.2319C47.9521 32.0651 44.8336 35.1837 41.0004 35.1837ZM46.478 26.4755C46.3489 26.0781 46.0112 25.7988 45.5967 25.7468L43.0549 25.4273L41.9657 23.1087C41.7881 22.7306 41.4181 22.4957 41.0004 22.4957C40.5826 22.4957 40.2128 22.7307 40.0351 23.1087L38.9458 25.4273L36.4041 25.7468C35.9894 25.7988 35.6517 26.0781 35.5228 26.4753C35.3936 26.8726 35.5027 27.297 35.8075 27.5828L37.676 29.3354L37.1945 31.8514C37.116 32.2617 37.2771 32.6691 37.615 32.9146C37.9529 33.1602 38.3902 33.1875 38.7563 32.986L41.0004 31.7506L43.2446 32.9861C43.4074 33.0757 43.5842 33.1201 43.7602 33.1201C43.9798 33.1201 44.198 33.051 44.3855 32.9147C44.7235 32.6692 44.8847 32.2618 44.8062 31.8514L44.3247 29.3353L46.1933 27.5826C46.4979 27.2968 46.6069 26.8725 46.4779 26.4754L46.478 26.4755ZM43.1149 28.5956C42.944 28.7559 42.8671 28.9925 42.9112 29.2227L43.3432 31.4798L41.33 30.3715C41.1248 30.2585 40.8759 30.2585 40.6707 30.3715L38.6575 31.4799L39.0895 29.2228C39.1336 28.9927 39.0567 28.756 38.8858 28.5957L37.2095 27.0235L39.4898 26.7369C39.7223 26.7077 39.9236 26.5614 40.0232 26.3493L41.0005 24.2693L41.9776 26.3493C42.0772 26.5613 42.2786 26.7076 42.511 26.7369L44.7913 27.0235L43.115 28.5957L43.1149 28.5956ZM35.2223 49.6469C34.6335 47.6452 33.1706 46.5239 31.4766 45.2255C29.6345 43.8136 27.547 42.2136 25.6703 38.9671C25.2423 38.1671 24.4449 37.6831 23.534 37.6717C22.9579 37.6644 22.4227 37.8475 21.9937 38.1823C21.4889 34.9839 21.184 30.5983 21.184 28.7435C21.184 27.1777 20.2834 26.2959 19.3908 26.1163C18.4147 25.9199 17.4881 26.4988 17.0302 27.5911C16.3948 29.1077 16.326 35.0857 16.4304 37.9493C16.5269 40.5939 16.7067 42.6693 18.1489 45.2998C18.8345 46.5504 19.6738 47.7668 20.4855 48.9432C20.8268 49.4379 21.1493 49.9052 21.4465 50.3555C22.7425 52.3192 23.6161 53.9447 23.8621 55.7066C23.1386 55.856 22.5226 56.3968 22.3187 57.1576L21.3527 60.7628C21.3058 60.9379 21.3303 61.1245 21.421 61.2815C21.5116 61.4386 21.6609 61.5531 21.836 61.6L32.9804 64.5861C33.0386 64.6018 33.0981 64.6095 33.1574 64.6095C33.2763 64.6095 33.3944 64.5784 33.4992 64.5179C33.6562 64.4272 33.7708 64.2779 33.8176 64.1028L34.7837 60.4977C35.0046 59.6735 34.6777 58.8308 34.0287 58.3528C35.4433 54.3438 35.811 51.6479 35.2223 49.647V49.6469ZM33.4631 60.1437L32.674 63.0885L22.8502 60.4562L23.6392 57.5114C23.7319 57.1659 24.088 56.9604 24.4336 57.0527L33.0044 59.3493C33.3499 59.4419 33.5556 59.7982 33.4631 60.1437ZM32.7505 57.8658L25.2569 55.8579C25.0107 53.4541 23.7587 51.3768 22.5876 49.6023C22.2826 49.1402 21.9563 48.6673 21.6109 48.1667C20.8188 47.0187 19.9998 45.8315 19.3478 44.6425C18.0471 42.2701 17.8892 40.4323 17.7968 37.8994C17.6662 34.316 17.8577 29.1545 18.2913 28.1195C18.4923 27.6403 18.8023 27.3924 19.1214 27.4565C19.4564 27.5239 19.817 27.9553 19.817 28.7434C19.817 31.2002 20.3036 37.6048 21.0986 40.6973L21.0992 40.6971C21.4803 43.4778 24.6617 47.1718 26.0803 48.0758C26.3988 48.2786 26.8213 48.185 27.0242 47.8666C27.2271 47.5482 27.1335 47.1257 26.815 46.9228C26.0958 46.4645 24.7337 45.02 23.6991 43.3961C22.6232 41.7071 22.1835 40.2501 22.5516 39.5935C22.7493 39.2409 23.1129 39.0371 23.5168 39.0386C23.9235 39.0437 24.2791 39.2602 24.4677 39.6177C24.4717 39.6253 24.4759 39.6328 24.4802 39.6402C26.4947 43.1293 28.7958 44.8932 30.6448 46.3104C32.2719 47.5576 33.4476 48.4588 33.9106 50.0326C34.4053 51.7142 34.0365 54.2105 32.7504 57.8657L32.7505 57.8658ZM64.9704 27.5911C64.5126 26.4989 63.586 25.9202 62.6099 26.1163C61.7173 26.2958 60.8167 27.1777 60.8167 28.7435C60.8167 30.5981 60.5119 34.9833 60.0071 38.1818C59.5783 37.8468 59.0434 37.6636 58.4667 37.6717C57.5559 37.6832 56.7584 38.1671 56.3304 38.9671C54.4537 42.2136 52.3662 43.8135 50.5241 45.2255C48.8301 46.5238 47.3672 47.6452 46.7784 49.6469C46.1897 51.6478 46.5574 54.3438 47.9719 58.3527C47.323 58.8307 46.9962 59.6733 47.2171 60.4975L48.1831 64.1026C48.2299 64.2777 48.3445 64.4271 48.5015 64.5177C48.6063 64.5782 48.7244 64.6093 48.8433 64.6093C48.9025 64.6093 48.9621 64.6016 49.0203 64.5859L60.1647 61.5998C60.3398 61.5529 60.4891 61.4384 60.5798 61.2813C60.6704 61.1243 60.695 60.9377 60.648 60.7626L59.682 57.1574C59.4781 56.3967 58.8619 55.856 58.1386 55.7065C58.3846 53.9447 59.2582 52.3191 60.5542 50.3554C60.8512 49.9052 61.1736 49.4381 61.5148 48.9436C62.3265 47.767 63.166 46.5504 63.8517 45.2997C65.294 42.669 65.4738 40.5938 65.5702 37.9492C65.6747 35.0856 65.6059 29.1076 64.9703 27.591L64.9704 27.5911ZM58.3615 57.5114L59.1506 60.4563L49.3267 63.0886L48.5377 60.1437C48.4451 59.7982 48.6508 59.4419 48.9963 59.3493L57.5672 57.0527C57.6232 57.0377 57.6795 57.0306 57.7348 57.0306C58.0212 57.0306 58.284 57.2221 58.3615 57.5114ZM64.204 37.8994C64.1116 40.4323 63.9538 42.2699 62.6529 44.6426C62.0009 45.8318 61.1817 47.019 60.3895 48.1673C60.0441 48.6678 59.718 49.1405 59.4131 49.6024C58.242 51.377 56.99 53.4542 56.7438 55.858L49.2502 57.8659C47.9639 54.2107 47.5952 51.7143 48.0899 50.0328C48.5529 48.459 49.7286 47.5579 51.3557 46.3106C53.2048 44.8934 55.5058 43.1295 57.5203 39.6404C57.5246 39.6329 57.5288 39.6254 57.5328 39.6179C57.7215 39.2604 58.077 39.0439 58.4838 39.0388C58.8932 39.0376 59.2513 39.2411 59.449 39.5938C59.8172 40.2504 59.3774 41.7074 58.3015 43.3963C57.2671 45.0201 55.9049 46.4646 55.1856 46.9229C54.8673 47.1259 54.7736 47.5484 54.9764 47.8668C55.1794 48.1851 55.6017 48.2788 55.9203 48.076C57.3389 47.172 60.5204 43.4781 60.9015 40.6973L60.9021 40.6975C61.6971 37.6046 62.1837 31.2001 62.1837 28.7436C62.1837 27.9556 62.5442 27.5241 62.8794 27.4567C63.1981 27.3927 63.5086 27.6404 63.7094 28.1196C64.1432 29.1547 64.3346 34.3161 64.204 37.8994ZM53.5023 22.6307C53.3135 22.3037 53.4255 21.8856 53.7525 21.6969L55.4355 20.7252C55.7626 20.5365 56.1805 20.6484 56.3693 20.9754C56.5581 21.3023 56.4461 21.7204 56.1191 21.9092L54.4361 22.8809C54.3284 22.943 54.2109 22.9726 54.0949 22.9726C53.8587 22.9726 53.6289 22.85 53.5023 22.6307ZM56.1191 34.5546C56.4461 34.7434 56.5581 35.1614 56.3693 35.4884C56.2427 35.7077 56.013 35.8303 55.7766 35.8303C55.6606 35.8303 55.5431 35.8008 55.4355 35.7386L53.7525 34.7669C53.4255 34.5781 53.3135 34.1601 53.5023 33.8331C53.6912 33.5061 54.1091 33.394 54.4361 33.5829L56.1191 34.5546ZM55.6867 27.5483H57.63C58.0076 27.5483 58.3136 27.8544 58.3136 28.2319C58.3136 28.6095 58.0076 28.9155 57.63 28.9155H55.6867C55.3091 28.9155 55.0031 28.6095 55.0031 28.2319C55.0031 27.8544 55.3091 27.5483 55.6867 27.5483ZM27.5647 33.5829C27.8919 33.3942 28.3098 33.5062 28.4985 33.8331C28.6873 34.1601 28.5753 34.5781 28.2483 34.7669L26.5653 35.7386C26.4576 35.8007 26.3401 35.8303 26.2242 35.8303C25.988 35.8303 25.7582 35.7077 25.6315 35.4884C25.4427 35.1614 25.5548 34.7434 25.8817 34.5546L27.5647 33.5829ZM23.6871 28.2319C23.6871 27.8544 23.9931 27.5483 24.3707 27.5483H26.3141C26.6917 27.5483 26.9977 27.8544 26.9977 28.2319C26.9977 28.6095 26.6917 28.9155 26.3141 28.9155H24.3707C23.9931 28.9155 23.6871 28.6095 23.6871 28.2319ZM25.6315 20.9754C25.8203 20.6483 26.2384 20.5363 26.5653 20.7252L28.2483 21.6969C28.5753 21.8856 28.6873 22.3037 28.4985 22.6307C28.3719 22.85 28.1422 22.9726 27.9059 22.9726C27.7899 22.9726 27.6724 22.9431 27.5647 22.8809L25.8817 21.9092C25.5548 21.7204 25.4427 21.3023 25.6315 20.9754Z" fill="#B7F594"/>
</g>
<defs>
<clipPath id="clip0_68_1202">
<rect width="50" height="50" fill="white" transform="translate(16 15)"/>
</clipPath>
</defs>
</svg>
