<svg width="126" height="32" viewBox="0 0 126 32" fill="none" xmlns="http://www.w3.org/2000/svg">
<path d="M0 31.36V0.639999H18.9059V6.44267H5.84365V13.0987H16.3278V18.9013H5.84365V31.36H0Z" fill="#B7F594"/>
<path d="M23.2145 31.36V0H29.0581V31.36H23.2145Z" fill="#B7F594"/>
<path d="M46.2839 32C43.9064 32 41.8081 31.4951 39.9891 30.4853C38.1845 29.4613 36.7665 28.0604 35.7353 26.2827C34.7184 24.4907 34.2099 22.4427 34.2099 20.1387C34.2099 17.6213 34.7112 15.4311 35.7138 13.568C36.7164 11.7049 38.0985 10.2613 39.8602 9.23733C41.6219 8.19911 43.6486 7.68 45.9402 7.68C48.375 7.68 50.4447 8.24889 52.1491 9.38667C53.8535 10.5244 55.1139 12.1244 55.9302 14.1867C56.7466 16.2489 57.0331 18.6738 56.7896 21.4613H51.0104V19.328C51.0104 16.9813 50.6309 15.296 49.8718 14.272C49.127 13.2338 47.9024 12.7147 46.198 12.7147C44.2071 12.7147 42.7391 13.3191 41.7938 14.528C40.8628 15.7227 40.3973 17.4933 40.3973 19.84C40.3973 21.9876 40.8628 23.6516 41.7938 24.832C42.7391 25.9982 44.1212 26.5813 45.9402 26.5813C47.086 26.5813 48.0671 26.3324 48.8835 25.8347C49.6999 25.3369 50.3229 24.6187 50.7526 23.68L56.5963 25.344C55.7226 27.4489 54.3404 29.0844 52.4498 30.2507C50.5736 31.4169 48.5183 32 46.2839 32ZM38.5927 21.4613V17.152H53.9752V21.4613H38.5927Z" fill="#B7F594"/>
<path d="M58.2233 31.36L66.5162 19.712L58.3952 8.32H65.2701L69.9106 15.1467L74.4652 8.32H81.3401L73.2192 19.712L81.555 31.36H74.6801L69.9106 24.2773L65.0982 31.36H58.2233Z" fill="#B7F594"/>
<path d="M85.4426 31.36V0.639999H91.2862V31.36H85.4426Z" fill="#B7F594"/>
<path d="M111.004 32C107.91 32 105.239 31.3316 102.991 29.9947C100.756 28.6578 99.0304 26.7876 97.813 24.384C96.6099 21.9804 96.0083 19.1858 96.0083 16C96.0083 12.8142 96.6099 10.0196 97.813 7.616C99.0304 5.21244 100.756 3.34222 102.991 2.00533C105.239 0.668444 107.91 0 111.004 0C114.098 0 116.762 0.668444 118.996 2.00533C121.245 3.34222 122.971 5.21244 124.174 7.616C125.391 10.0196 126 12.8142 126 16C126 19.1858 125.391 21.9804 124.174 24.384C122.971 26.7876 121.245 28.6578 118.996 29.9947C116.762 31.3316 114.098 32 111.004 32ZM111.004 26.5387C112.966 26.5671 114.599 26.1476 115.903 25.28C117.206 24.4124 118.18 23.1822 118.824 21.5893C119.483 19.9964 119.813 18.1333 119.813 16C119.813 13.8667 119.483 12.0178 118.824 10.4533C118.18 8.88889 117.206 7.67289 115.903 6.80533C114.599 5.93778 112.966 5.48978 111.004 5.46133C109.042 5.43289 107.409 5.85244 106.106 6.72C104.802 7.58755 103.821 8.81778 103.162 10.4107C102.518 12.0036 102.196 13.8667 102.196 16C102.196 18.1333 102.518 19.9822 103.162 21.5467C103.821 23.1111 104.802 24.3271 106.106 25.1947C107.409 26.0622 109.042 26.5102 111.004 26.5387Z" fill="#B7F594"/>
</svg>
