<svg width="19" height="19" viewBox="0 0 19 19" fill="none" xmlns="http://www.w3.org/2000/svg">
<path d="M1.25 3.5C1.25 2.90326 1.48705 2.33097 1.90901 1.90901C2.33097 1.48705 2.90326 1.25 3.5 1.25H5.75C6.34674 1.25 6.91903 1.48705 7.34099 1.90901C7.76295 2.33097 8 2.90326 8 3.5V5.75C8 6.34674 7.76295 6.91903 7.34099 7.34099C6.91903 7.76295 6.34674 8 5.75 8H3.5C2.90326 8 2.33097 7.76295 1.90901 7.34099C1.48705 6.91903 1.25 6.34674 1.25 5.75V3.5ZM1.25 13.25C1.25 12.6533 1.48705 12.081 1.90901 11.659C2.33097 11.2371 2.90326 11 3.5 11H5.75C6.34674 11 6.91903 11.2371 7.34099 11.659C7.76295 12.081 8 12.6533 8 13.25V15.5C8 16.0967 7.76295 16.669 7.34099 17.091C6.91903 17.5129 6.34674 17.75 5.75 17.75H3.5C2.90326 17.75 2.33097 17.5129 1.90901 17.091C1.48705 16.669 1.25 16.0967 1.25 15.5V13.25ZM11 3.5C11 2.90326 11.2371 2.33097 11.659 1.90901C12.081 1.48705 12.6533 1.25 13.25 1.25H15.5C16.0967 1.25 16.669 1.48705 17.091 1.90901C17.5129 2.33097 17.75 2.90326 17.75 3.5V5.75C17.75 6.34674 17.5129 6.91903 17.091 7.34099C16.669 7.76295 16.0967 8 15.5 8H13.25C12.6533 8 12.081 7.76295 11.659 7.34099C11.2371 6.91903 11 6.34674 11 5.75V3.5ZM11 13.25C11 12.6533 11.2371 12.081 11.659 11.659C12.081 11.2371 12.6533 11 13.25 11H15.5C16.0967 11 16.669 11.2371 17.091 11.659C17.5129 12.081 17.75 12.6533 17.75 13.25V15.5C17.75 16.0967 17.5129 16.669 17.091 17.091C16.669 17.5129 16.0967 17.75 15.5 17.75H13.25C12.6533 17.75 12.081 17.5129 11.659 17.091C11.2371 16.669 11 16.0967 11 15.5V13.25Z" stroke="#0D0C0C" stroke-width="1.5" stroke-linecap="round" stroke-linejoin="round"/>
</svg>
