<svg width="24" height="24" viewBox="0 0 24 24" fill="none" xmlns="http://www.w3.org/2000/svg">
<path d="M2.85773 14.5138L1.84865 15.5229C1.70931 15.6623 1.70931 15.8882 1.84865 16.0275C1.98799 16.1668 2.21387 16.1668 2.35321 16.0275L3.36234 15.0184C3.50168 14.879 3.50168 14.6531 3.36234 14.5138C3.223 14.3745 2.99707 14.3745 2.85773 14.5138Z" fill="url(#paint0_linear_68_1812)"/>
<path d="M1.11359 14.24L0.104506 15.2492C-0.0348353 15.3885 -0.0348353 15.6144 0.104506 15.7537C0.243847 15.8931 0.469729 15.8931 0.609071 15.7537L1.61815 14.7446C1.75749 14.6053 1.75749 14.3794 1.61815 14.24C1.47881 14.1007 1.25293 14.1007 1.11359 14.24Z" fill="url(#paint1_linear_68_1812)"/>
<path d="M6.63671 9.22122C6.49737 9.08188 6.27148 9.08188 6.13214 9.22122L2.62697 12.7264C2.48763 12.8657 2.48763 13.0916 2.62697 13.231C2.76631 13.3703 2.99219 13.3703 3.13153 13.231L6.63671 9.72579C6.77605 9.58644 6.77605 9.36056 6.63671 9.22122Z" fill="url(#paint2_linear_68_1812)"/>
<path d="M6.63671 9.22122C6.49737 9.08188 6.27148 9.08188 6.13214 9.22122L2.62697 12.7264C2.48763 12.8657 2.48763 13.0916 2.62697 13.231C2.76631 13.3703 2.99219 13.3703 3.13153 13.231L6.63671 9.72579C6.77605 9.58644 6.77605 9.36056 6.63671 9.22122Z" fill="url(#paint3_linear_68_1812)"/>
<path d="M1.37665 12.9676L1.90366 12.4406C2.043 12.3013 2.043 12.0754 1.90366 11.9361C1.76432 11.7967 1.53844 11.7967 1.3991 11.9361L0.872084 12.4631C0.732743 12.6024 0.732743 12.8283 0.872084 12.9676C1.01143 13.1069 1.23731 13.1069 1.37665 12.9676Z" fill="url(#paint4_linear_68_1812)"/>
<path d="M11.6732 22.3819L10.6641 23.3909C10.5247 23.5303 10.5247 23.7562 10.6641 23.8955C10.8034 24.0348 11.0293 24.0348 11.1686 23.8955L12.1778 22.8864C12.3171 22.747 12.3171 22.5211 12.1778 22.3818C12.0384 22.2425 11.8125 22.2425 11.6732 22.3819Z" fill="url(#paint5_linear_68_1812)"/>
<path d="M9.92931 22.108L8.92018 23.1172C8.78084 23.2565 8.78084 23.4824 8.92018 23.6217C9.05952 23.7611 9.2854 23.7611 9.42474 23.6217L10.4338 22.6127C10.5732 22.4733 10.5732 22.2474 10.4338 22.1081C10.2946 21.9687 10.0687 21.9687 9.92931 22.108Z" fill="url(#paint6_linear_68_1812)"/>
<path d="M15.4521 17.0892C15.3128 16.9499 15.0869 16.9499 14.9476 17.0892L11.4424 20.5944C11.3031 20.7337 11.3031 20.9596 11.4424 21.099C11.5817 21.2383 11.8076 21.2383 11.947 21.099L15.4521 17.5938C15.5915 17.4544 15.5915 17.2286 15.4521 17.0892Z" fill="url(#paint7_linear_68_1812)"/>
<path d="M9.31415 21.7141L9.84116 21.1871C9.9805 21.0477 9.9805 20.8218 9.84116 20.6825C9.70182 20.5432 9.47594 20.5432 9.3366 20.6825L8.80958 21.2095C8.67024 21.3488 8.67024 21.5747 8.80958 21.7141C8.94893 21.8534 9.17481 21.8534 9.31415 21.7141Z" fill="url(#paint8_linear_68_1812)"/>
<path d="M6.50776 13.2779C4.60047 13.3787 3.61614 15.0128 3.27265 15.7346C3.23472 15.8143 3.34211 15.9273 3.42447 15.8935C3.42734 15.8923 3.43025 15.8912 3.43312 15.89C3.46724 15.8764 3.50329 15.8732 3.53905 15.8784C3.75623 15.9094 3.79684 16.2063 3.60145 16.3061C3.38447 16.4169 3.16207 16.5725 2.94498 16.7896C1.77552 17.959 2.14498 18.9612 1.71138 19.5076C1.6807 19.5462 1.72974 19.6168 1.78371 19.612C1.86649 19.6048 1.97444 19.5915 2.10094 19.5672C2.16272 19.5553 2.23289 19.6223 2.22498 19.6857C2.13628 20.397 1.96272 21.316 2.36329 21.7166C3.00155 22.3549 4.55171 21.9397 5.67581 21.5375C5.82823 21.483 6.02291 21.6788 5.96329 21.8282C5.9624 21.8305 5.96145 21.8328 5.96051 21.8351C5.93388 21.9 6.02305 21.9847 6.08588 21.9548C6.29303 21.8562 6.59543 21.6907 6.90014 21.4475C7.2888 21.1374 7.72625 20.8934 8.1991 20.7396C8.69275 20.5791 9.24089 20.2976 9.8216 19.717C10.9699 18.5687 10.761 17.3031 10.7433 16.9089C10.6498 16.0904 10.2334 15.2214 9.52056 14.5086C8.62607 13.614 7.48564 13.1856 6.50776 13.2779Z" fill="url(#paint9_linear_68_1812)"/>
<path d="M5.6755 21.5375C5.82792 21.4829 6.02261 21.6788 5.96298 21.8282C5.96209 21.8304 5.96115 21.8328 5.96021 21.835C5.93357 21.9 6.02275 21.9846 6.08557 21.9547C6.29272 21.8561 6.59512 21.6906 6.89983 21.4475C7.28849 21.1374 7.72595 20.8933 8.1988 20.7396C8.69244 20.5791 9.24058 20.2976 9.82129 19.7169C10.9696 18.5686 10.7607 17.303 10.743 16.9088C10.6495 16.0904 10.2331 15.2214 9.52025 14.5086C8.62576 13.6141 7.48529 13.1856 6.50741 13.2779C5.75856 13.3175 5.15202 13.5935 4.67065 13.9578V21.8522C5.01936 21.7615 5.36383 21.6489 5.6755 21.5375Z" fill="url(#paint10_linear_68_1812)"/>
<path d="M3.03692 18.3005C3.00751 18.3375 3.05448 18.4051 3.10624 18.4006C3.18558 18.3936 3.28902 18.3809 3.41019 18.3576C3.46939 18.3462 3.53664 18.4104 3.52906 18.4712C3.44408 19.1528 3.27772 20.0334 3.66163 20.4173C4.27325 21.0289 5.75866 20.631 6.83589 20.2456C6.98196 20.1934 7.1685 20.381 7.11137 20.5242C7.11052 20.5264 7.10963 20.5286 7.10873 20.5308C7.08323 20.593 7.16864 20.6742 7.22888 20.6455C7.77443 20.3859 9.00939 19.642 9.08558 18.2005C9.15532 17.4615 8.83151 16.5995 8.15546 15.9235C7.61673 15.3848 6.95998 15.07 6.34139 14.9994C6.04351 14.986 5.08699 14.8281 4.21909 15.696C3.09838 16.8166 3.45245 17.7769 3.03692 18.3005Z" fill="url(#paint11_linear_68_1812)"/>
<path d="M9.82157 19.7169C10.9699 18.5686 10.761 17.303 10.7433 16.9088C10.6498 16.0904 10.2333 15.2214 9.52053 14.5086C8.62604 13.6141 7.48556 13.1856 6.50768 13.2779C5.23639 13.3451 4.37531 14.0935 3.84058 14.7988L9.24881 20.207C9.43549 20.0728 9.62669 19.9118 9.82157 19.7169Z" fill="url(#paint12_linear_68_1812)"/>
<path d="M15.1283 14.5268L14.3199 13.7184L10.1666 17.8717L11.1567 18.8619L10.5559 19.4627L10.5564 19.4633L10.2078 19.8119C10.0684 19.9513 10.0684 20.1772 10.2078 20.3165C10.3433 20.452 10.5603 20.4553 10.7003 20.3274L11.6613 19.3664L13.1756 20.8806L12.7018 21.3545C12.5624 21.4938 12.5624 21.7197 12.7018 21.859C12.8411 21.9984 13.067 21.9984 13.2063 21.859L13.6849 21.3804C14.0848 21.7004 14.6697 21.6754 15.0402 21.3048L15.1284 21.2166C16.9757 19.3693 16.9757 16.3742 15.1283 14.5268Z" fill="url(#paint13_linear_68_1812)"/>
<path d="M15.1283 14.5268L14.3199 13.7184L10.1666 17.8717L11.1567 18.8619L10.5559 19.4627L10.5564 19.4633L10.2078 19.8119C10.0684 19.9513 10.0684 20.1772 10.2078 20.3165C10.3433 20.452 10.5603 20.4553 10.7003 20.3274L11.6613 19.3664L13.1756 20.8806L12.7018 21.3545C12.5624 21.4938 12.5624 21.7197 12.7018 21.859C12.8411 21.9984 13.067 21.9984 13.2063 21.859L13.6849 21.3804C14.0848 21.7004 14.6697 21.6754 15.0402 21.3048L15.1284 21.2166C16.9757 19.3693 16.9757 16.3742 15.1283 14.5268Z" fill="url(#paint14_linear_68_1812)"/>
<path d="M13.6844 21.3804C14.0843 21.7003 14.6692 21.6754 15.0398 21.3048L15.1279 21.2166C16.7401 19.6045 16.9452 17.1184 15.7436 15.2836L11.6609 19.3664L13.6844 21.3804Z" fill="url(#paint15_linear_68_1812)"/>
<path d="M10.2819 9.68061L9.47353 8.87224C7.62618 7.0249 4.63103 7.0249 2.78369 8.87224L2.6955 8.96043C2.29776 9.35817 2.29776 10.0031 2.6955 10.4009L2.81465 10.52L2.61837 10.7163L2.61894 10.7169L2.27028 11.0655C2.13094 11.2049 2.13094 11.4307 2.27028 11.5701C2.40576 11.7056 2.62284 11.7089 2.76284 11.5809L3.31922 11.0246L4.83348 12.5388L4.37207 13.0002C4.23272 13.1396 4.23272 13.3655 4.37207 13.5048C4.51141 13.6441 4.73729 13.6441 4.87663 13.5048L5.33804 13.0434L6.12868 13.834L10.2819 9.68061Z" fill="url(#paint16_linear_68_1812)"/>
<path d="M6.1285 13.8339L10.2818 9.68061L9.47344 8.87224C8.72309 8.12188 7.78337 7.67633 6.80813 7.53553L3.31909 11.0246L6.1285 13.8339Z" fill="url(#paint17_linear_68_1812)"/>
<path d="M9.66346 17.8645C10.103 18.3041 10.7182 18.4719 11.3364 18.4062C12.7655 18.2544 15.4014 17.3931 15.4014 17.3931C20.4582 15.2264 24.0007 10.2046 24.0007 4.35487V1.61831C24.0007 0.724518 23.2762 0 22.3825 0H19.6459C13.7961 0 8.77429 3.54254 6.60765 8.59929C6.60765 8.59929 5.74638 11.2352 5.59457 12.6643C5.52887 13.2824 5.69669 13.8976 6.13626 14.3372L9.66346 17.8645Z" fill="url(#paint18_linear_68_1812)"/>
<path d="M24.0003 4.35482V1.61826C24.0003 1.17139 23.8192 0.766823 23.5263 0.473976L7.89941 16.1009L9.66304 17.8645C10.1026 18.3041 10.7178 18.5189 11.336 18.4533C18.4546 17.697 24.0003 11.674 24.0003 4.35482Z" fill="url(#paint19_linear_68_1812)"/>
<path d="M22.4587 10.7895L17.8348 6.16556L12.4053 11.5951L17.2457 16.4355C19.4603 15.0717 21.2713 13.1164 22.4587 10.7895Z" fill="url(#paint20_linear_68_1812)"/>
<path d="M6.60808 8.59949C6.06385 9.8697 5.69933 11.2352 5.54752 12.6643C5.48182 13.2825 5.69669 13.8977 6.13627 14.3372L9.66352 17.8645C10.1031 18.3041 10.7183 18.5189 11.3365 18.4532C12.7656 18.3014 14.1311 17.9369 15.4013 17.3927L6.60808 8.59949Z" fill="url(#paint21_linear_68_1812)"/>
<path d="M22.3823 0H19.6457C17.9534 0 16.3306 0.297035 14.8259 0.840941L23.1596 9.17468C23.7035 7.66998 24.0006 6.0472 24.0006 4.35487V1.61831C24.0006 0.724518 23.276 0 22.3823 0Z" fill="url(#paint22_linear_68_1812)"/>
<path d="M15.1203 12.7196C17.2406 12.7196 18.9595 11.0007 18.9595 8.88038C18.9595 6.76003 17.2406 5.04114 15.1203 5.04114C12.9999 5.04114 11.281 6.76003 11.281 8.88038C11.281 11.0007 12.9999 12.7196 15.1203 12.7196Z" fill="url(#paint23_linear_68_1812)"/>
<path d="M15.1201 12.2449C16.9783 12.2449 18.4847 10.7386 18.4847 8.88039C18.4847 7.02222 16.9783 5.51587 15.1201 5.51587C13.262 5.51587 11.7556 7.02222 11.7556 8.88039C11.7556 10.7386 13.262 12.2449 15.1201 12.2449Z" fill="url(#paint24_linear_68_1812)"/>
<path d="M15.1198 11.6801C16.666 11.6801 17.9195 10.4266 17.9195 8.88041C17.9195 7.33416 16.666 6.08069 15.1198 6.08069C13.5735 6.08069 12.3201 7.33416 12.3201 8.88041C12.3201 10.4266 13.5735 11.6801 15.1198 11.6801Z" fill="url(#paint25_linear_68_1812)"/>
<path d="M15.12 11.273C16.4414 11.273 17.5126 10.2018 17.5126 8.88033C17.5126 7.5589 16.4414 6.48767 15.12 6.48767C13.7985 6.48767 12.7273 7.5589 12.7273 8.88033C12.7273 10.2018 13.7985 11.273 15.12 11.273Z" fill="url(#paint26_linear_68_1812)"/>
<path d="M15.12 11.273C16.4414 11.273 17.5126 10.2018 17.5126 8.88033C17.5126 7.5589 16.4414 6.48767 15.12 6.48767C13.7985 6.48767 12.7273 7.5589 12.7273 8.88033C12.7273 10.2018 13.7985 11.273 15.12 11.273Z" fill="url(#paint27_linear_68_1812)"/>
<path d="M15.12 11.273C16.4414 11.273 17.5126 10.2018 17.5126 8.88033C17.5126 7.5589 16.4414 6.48767 15.12 6.48767C13.7985 6.48767 12.7273 7.5589 12.7273 8.88033C12.7273 10.2018 13.7985 11.273 15.12 11.273Z" fill="url(#paint28_linear_68_1812)"/>
<path d="M15.4003 17.3925C14.1302 17.9369 12.7646 18.3016 11.3354 18.4532C10.7175 18.519 10.102 18.304 9.66246 17.8645L7.89917 16.1012L11.0041 12.9962L15.4003 17.3925Z" fill="url(#paint29_linear_68_1812)"/>
<path d="M24.0002 1.61836V4.35483C24.0002 6.04706 23.7033 7.67012 23.1593 9.17459L18.9927 5.008L23.5263 0.473885C23.819 0.767061 24.0002 1.17177 24.0002 1.61836Z" fill="url(#paint30_linear_68_1812)"/>
<path d="M13.7101 20.3454L12.7009 21.3545C12.5616 21.4938 12.5616 21.7197 12.7009 21.8591C12.8403 21.9984 13.0662 21.9984 13.2055 21.8591L14.2146 20.8499C14.354 20.7106 14.354 20.4847 14.2146 20.3454C14.0753 20.206 13.8494 20.206 13.7101 20.3454Z" fill="url(#paint31_linear_68_1812)"/>
<path d="M10.6998 20.3273L11.847 19.1802C11.9863 19.0409 11.9863 18.815 11.847 18.6756C11.7076 18.5363 11.4817 18.5363 11.3424 18.6756L10.5554 19.4627L10.5559 19.4633L10.2073 19.8119C10.0679 19.9513 10.0679 20.1771 10.2073 20.3165C10.3427 20.452 10.5598 20.4553 10.6998 20.3273Z" fill="url(#paint32_linear_68_1812)"/>
<path d="M5.38121 11.9911L4.37208 13.0002C4.23274 13.1396 4.23274 13.3655 4.37208 13.5048C4.51143 13.6441 4.73731 13.6441 4.87665 13.5048L5.88578 12.4957C6.02512 12.3563 6.02512 12.1304 5.88578 11.9911C5.74644 11.8518 5.52055 11.8518 5.38121 11.9911Z" fill="url(#paint33_linear_68_1812)"/>
<path d="M2.76211 11.5809L3.90926 10.4338C4.0486 10.2944 4.0486 10.0686 3.90926 9.92921C3.76992 9.78987 3.54404 9.78987 3.4047 9.92921L2.61764 10.7163L2.6182 10.7168L2.26954 11.0655C2.1302 11.2048 2.1302 11.4307 2.26954 11.5701C2.40503 11.7055 2.62211 11.7089 2.76211 11.5809Z" fill="url(#paint34_linear_68_1812)"/>
<path d="M6.63696 9.22122C6.49762 9.08188 6.27174 9.08188 6.1324 9.22122L3.82397 11.5296L4.32854 12.0342L6.63696 9.72579C6.7763 9.58644 6.7763 9.36056 6.63696 9.22122Z" fill="url(#paint35_linear_68_1812)"/>
<path d="M15.0399 21.3048L15.1281 21.2166C15.8633 20.4814 16.3049 19.5642 16.4549 18.6101L13.6846 21.3804C14.0845 21.7003 14.6694 21.6754 15.0399 21.3048Z" fill="url(#paint36_linear_68_1812)"/>
<defs>
<linearGradient id="paint0_linear_68_1812" x1="-0.601942" y1="13.3869" x2="3.351" y2="15.7085" gradientUnits="userSpaceOnUse">
<stop stop-color="#DEECF1"/>
<stop offset="1" stop-color="#D9B1EE"/>
</linearGradient>
<linearGradient id="paint1_linear_68_1812" x1="-0.929518" y1="13.9451" x2="3.02342" y2="16.2667" gradientUnits="userSpaceOnUse">
<stop stop-color="#DEECF1"/>
<stop offset="1" stop-color="#D9B1EE"/>
</linearGradient>
<linearGradient id="paint2_linear_68_1812" x1="1.68396" y1="9.49477" x2="5.6369" y2="11.8163" gradientUnits="userSpaceOnUse">
<stop stop-color="#DEECF1"/>
<stop offset="1" stop-color="#D9B1EE"/>
</linearGradient>
<linearGradient id="paint3_linear_68_1812" x1="3.47393" y1="12.384" x2="4.172" y2="11.6859" gradientUnits="userSpaceOnUse">
<stop stop-color="#8379C1" stop-opacity="0"/>
<stop offset="0.2831" stop-color="#8374BE" stop-opacity="0.283"/>
<stop offset="0.5864" stop-color="#8268B5" stop-opacity="0.586"/>
<stop offset="0.898" stop-color="#8152A6" stop-opacity="0.898"/>
<stop offset="1" stop-color="#814AA0"/>
</linearGradient>
<linearGradient id="paint4_linear_68_1812" x1="0.316696" y1="11.8227" x2="4.26964" y2="14.1443" gradientUnits="userSpaceOnUse">
<stop stop-color="#DEECF1"/>
<stop offset="1" stop-color="#D9B1EE"/>
</linearGradient>
<linearGradient id="paint5_linear_68_1812" x1="8.66652" y1="21.8115" x2="13.2077" y2="23.9997" gradientUnits="userSpaceOnUse">
<stop stop-color="#DEECF1"/>
<stop offset="1" stop-color="#D9B1EE"/>
</linearGradient>
<linearGradient id="paint6_linear_68_1812" x1="8.4454" y1="22.2714" x2="12.9866" y2="24.4596" gradientUnits="userSpaceOnUse">
<stop stop-color="#DEECF1"/>
<stop offset="1" stop-color="#D9B1EE"/>
</linearGradient>
<linearGradient id="paint7_linear_68_1812" x1="10.6301" y1="17.7366" x2="15.1712" y2="19.9248" gradientUnits="userSpaceOnUse">
<stop stop-color="#DEECF1"/>
<stop offset="1" stop-color="#D9B1EE"/>
</linearGradient>
<linearGradient id="paint8_linear_68_1812" x1="9.03081" y1="21.0563" x2="13.572" y2="23.2446" gradientUnits="userSpaceOnUse">
<stop stop-color="#DEECF1"/>
<stop offset="1" stop-color="#D9B1EE"/>
</linearGradient>
<linearGradient id="paint9_linear_68_1812" x1="3.85068" y1="16.397" x2="6.7696" y2="18.7736" gradientUnits="userSpaceOnUse">
<stop stop-color="#FFF5C6"/>
<stop offset="1" stop-color="#FEE45A"/>
</linearGradient>
<linearGradient id="paint10_linear_68_1812" x1="6.9164" y1="18.0178" x2="9.62868" y2="20.1101" gradientUnits="userSpaceOnUse">
<stop stop-color="#FEA613" stop-opacity="0"/>
<stop offset="0.174" stop-color="#FDA016" stop-opacity="0.174"/>
<stop offset="0.3957" stop-color="#F9911E" stop-opacity="0.396"/>
<stop offset="0.6432" stop-color="#F4772B" stop-opacity="0.643"/>
<stop offset="0.9076" stop-color="#EC523D" stop-opacity="0.908"/>
<stop offset="1" stop-color="#E94444"/>
</linearGradient>
<linearGradient id="paint11_linear_68_1812" x1="0.855558" y1="17.4376" x2="8.57913" y2="18.1608" gradientUnits="userSpaceOnUse">
<stop stop-color="#FEA613" stop-opacity="0"/>
<stop offset="0.174" stop-color="#FDA016" stop-opacity="0.174"/>
<stop offset="0.3957" stop-color="#F9911E" stop-opacity="0.396"/>
<stop offset="0.6432" stop-color="#F4772B" stop-opacity="0.643"/>
<stop offset="0.9076" stop-color="#EC523D" stop-opacity="0.908"/>
<stop offset="1" stop-color="#E94444"/>
</linearGradient>
<linearGradient id="paint12_linear_68_1812" x1="6.83493" y1="17.2225" x2="8.10486" y2="15.9526" gradientUnits="userSpaceOnUse">
<stop stop-color="#FEA613" stop-opacity="0"/>
<stop offset="0.174" stop-color="#FDA016" stop-opacity="0.174"/>
<stop offset="0.3957" stop-color="#F9911E" stop-opacity="0.396"/>
<stop offset="0.6432" stop-color="#F4772B" stop-opacity="0.643"/>
<stop offset="0.9076" stop-color="#EC523D" stop-opacity="0.908"/>
<stop offset="1" stop-color="#E94444"/>
</linearGradient>
<linearGradient id="paint13_linear_68_1812" x1="11.8823" y1="16.6359" x2="15.2828" y2="20.0364" gradientUnits="userSpaceOnUse">
<stop stop-color="#9BE69D"/>
<stop offset="1" stop-color="#0BB494"/>
</linearGradient>
<linearGradient id="paint14_linear_68_1812" x1="13.5375" y1="19.5579" x2="13.1139" y2="17.9422" gradientUnits="userSpaceOnUse">
<stop stop-color="#01525A" stop-opacity="0"/>
<stop offset="1" stop-color="#01525A"/>
</linearGradient>
<linearGradient id="paint15_linear_68_1812" x1="12.8101" y1="18.8316" x2="11.1631" y2="19.114" gradientUnits="userSpaceOnUse">
<stop stop-color="#01525A" stop-opacity="0"/>
<stop offset="1" stop-color="#01525A"/>
</linearGradient>
<linearGradient id="paint16_linear_68_1812" x1="3.94317" y1="8.29243" x2="7.10435" y2="11.4536" gradientUnits="userSpaceOnUse">
<stop stop-color="#9BE69D"/>
<stop offset="1" stop-color="#0BB494"/>
</linearGradient>
<linearGradient id="paint17_linear_68_1812" x1="4.78455" y1="10.6847" x2="2.60366" y2="10.6847" gradientUnits="userSpaceOnUse">
<stop stop-color="#01525A" stop-opacity="0"/>
<stop offset="1" stop-color="#01525A"/>
</linearGradient>
<linearGradient id="paint18_linear_68_1812" x1="13.6898" y1="6.26391" x2="18.057" y2="10.6311" gradientUnits="userSpaceOnUse">
<stop stop-color="#DEECF1"/>
<stop offset="1" stop-color="#8EBAC5"/>
</linearGradient>
<linearGradient id="paint19_linear_68_1812" x1="18.0423" y1="10.6168" x2="20.6814" y2="13.2559" gradientUnits="userSpaceOnUse">
<stop stop-color="#678D98" stop-opacity="0"/>
<stop offset="0.2265" stop-color="#638892" stop-opacity="0.227"/>
<stop offset="0.5216" stop-color="#597B82" stop-opacity="0.522"/>
<stop offset="0.8533" stop-color="#476567" stop-opacity="0.853"/>
<stop offset="1" stop-color="#3E5959"/>
</linearGradient>
<linearGradient id="paint20_linear_68_1812" x1="18.4142" y1="12.1745" x2="14.2573" y2="8.01756" gradientUnits="userSpaceOnUse">
<stop stop-color="#678D98" stop-opacity="0"/>
<stop offset="0.2265" stop-color="#638892" stop-opacity="0.227"/>
<stop offset="0.5216" stop-color="#597B82" stop-opacity="0.522"/>
<stop offset="0.8533" stop-color="#476567" stop-opacity="0.853"/>
<stop offset="1" stop-color="#3E5959"/>
</linearGradient>
<linearGradient id="paint21_linear_68_1812" x1="7.64051" y1="12.7367" x2="11.1198" y2="16.2161" gradientUnits="userSpaceOnUse">
<stop stop-color="#FFA1AE"/>
<stop offset="1" stop-color="#FF4565"/>
</linearGradient>
<linearGradient id="paint22_linear_68_1812" x1="19.5891" y1="1.07031" x2="22.4224" y2="3.90362" gradientUnits="userSpaceOnUse">
<stop stop-color="#FFA1AE"/>
<stop offset="1" stop-color="#FF4565"/>
</linearGradient>
<linearGradient id="paint23_linear_68_1812" x1="12.9399" y1="6.69996" x2="17.973" y2="11.7331" gradientUnits="userSpaceOnUse">
<stop stop-color="#9BE69D"/>
<stop offset="1" stop-color="#0BB494"/>
</linearGradient>
<linearGradient id="paint24_linear_68_1812" x1="15.1202" y1="5.953" x2="15.1202" y2="12.5634" gradientUnits="userSpaceOnUse">
<stop stop-color="#9BE69D"/>
<stop offset="1" stop-color="#0BB494"/>
</linearGradient>
<linearGradient id="paint25_linear_68_1812" x1="17.0492" y1="10.8098" x2="14.1148" y2="7.87542" gradientUnits="userSpaceOnUse">
<stop stop-color="#9BE69D"/>
<stop offset="1" stop-color="#0BB494"/>
</linearGradient>
<linearGradient id="paint26_linear_68_1812" x1="13.9435" y1="7.70386" x2="16.6668" y2="10.4272" gradientUnits="userSpaceOnUse">
<stop stop-color="#A6E7F0"/>
<stop offset="0.1713" stop-color="#90E2ED"/>
<stop offset="0.5295" stop-color="#56D7E7"/>
<stop offset="1" stop-color="#02C7DD"/>
</linearGradient>
<linearGradient id="paint27_linear_68_1812" x1="14.1389" y1="8.76099" x2="12.3977" y2="8.54922" gradientUnits="userSpaceOnUse">
<stop stop-color="#0199B1" stop-opacity="0"/>
<stop offset="1" stop-color="#0199B1"/>
</linearGradient>
<linearGradient id="paint28_linear_68_1812" x1="14.5862" y1="7.97148" x2="13.7156" y2="6.48913" gradientUnits="userSpaceOnUse">
<stop stop-color="#0199B1" stop-opacity="0"/>
<stop offset="1" stop-color="#0199B1"/>
</linearGradient>
<linearGradient id="paint29_linear_68_1812" x1="11.0292" y1="15.2542" x2="12.19" y2="18.0463" gradientUnits="userSpaceOnUse">
<stop stop-color="#FD4755" stop-opacity="0"/>
<stop offset="0.2586" stop-color="#F74453" stop-opacity="0.259"/>
<stop offset="0.6211" stop-color="#E53B4C" stop-opacity="0.621"/>
<stop offset="1" stop-color="#CA2E43"/>
</linearGradient>
<linearGradient id="paint30_linear_68_1812" x1="21.8405" y1="4.25817" x2="24.0052" y2="5.07384" gradientUnits="userSpaceOnUse">
<stop stop-color="#FD4755" stop-opacity="0"/>
<stop offset="0.2586" stop-color="#F74453" stop-opacity="0.259"/>
<stop offset="0.6211" stop-color="#E53B4C" stop-opacity="0.621"/>
<stop offset="1" stop-color="#CA2E43"/>
</linearGradient>
<linearGradient id="paint31_linear_68_1812" x1="13.7325" y1="20.6982" x2="12.9325" y2="21.8747" gradientUnits="userSpaceOnUse">
<stop stop-color="#DEECF1" stop-opacity="0"/>
<stop offset="1" stop-color="#D9B1EE"/>
</linearGradient>
<linearGradient id="paint32_linear_68_1812" x1="11.3237" y1="19.06" x2="10.5237" y2="20.2365" gradientUnits="userSpaceOnUse">
<stop stop-color="#DEECF1" stop-opacity="0"/>
<stop offset="1" stop-color="#D9B1EE"/>
</linearGradient>
<linearGradient id="paint33_linear_68_1812" x1="5.51119" y1="12.3657" x2="4.17637" y2="13.7005" gradientUnits="userSpaceOnUse">
<stop stop-color="#DEECF1" stop-opacity="0"/>
<stop offset="1" stop-color="#D9B1EE"/>
</linearGradient>
<linearGradient id="paint34_linear_68_1812" x1="3.49157" y1="10.3469" x2="2.15679" y2="11.6817" gradientUnits="userSpaceOnUse">
<stop stop-color="#DEECF1" stop-opacity="0"/>
<stop offset="1" stop-color="#D9B1EE"/>
</linearGradient>
<linearGradient id="paint35_linear_68_1812" x1="5.29381" y1="10.5644" x2="3.91306" y2="11.9451" gradientUnits="userSpaceOnUse">
<stop stop-color="#8379C1" stop-opacity="0"/>
<stop offset="0.2831" stop-color="#8374BE" stop-opacity="0.283"/>
<stop offset="0.5864" stop-color="#8268B5" stop-opacity="0.586"/>
<stop offset="0.898" stop-color="#8152A6" stop-opacity="0.898"/>
<stop offset="1" stop-color="#814AA0"/>
</linearGradient>
<linearGradient id="paint36_linear_68_1812" x1="14.9337" y1="20.1065" x2="12.4721" y2="20.1065" gradientUnits="userSpaceOnUse">
<stop stop-color="#01525A" stop-opacity="0"/>
<stop offset="1" stop-color="#01525A"/>
</linearGradient>
</defs>
</svg>
