<svg width="30" height="30" viewBox="0 0 30 30" fill="none" xmlns="http://www.w3.org/2000/svg">
<rect width="30" height="30" rx="15" fill="white" fill-opacity="0.3"/>
<g clip-path="url(#clip0_75_2122)">
<path d="M15.3011 10.1153C15.4107 10.2249 15.5885 10.2249 15.6981 10.1153L17.0161 8.7973C17.1258 8.68765 17.1258 8.50989 17.0161 8.40024L15.6981 7.08224C15.5885 6.97259 15.4107 6.97259 15.3011 7.08224L13.9831 8.40024C13.8735 8.50989 13.8735 8.68765 13.9831 8.7973L15.3011 10.1153Z" fill="white"/>
<path d="M15.3011 12.9836L13.9831 14.3016C13.8735 14.4113 13.8735 14.589 13.9831 14.6987L15.3011 16.0167C15.4107 16.1263 15.5885 16.1263 15.6981 16.0167L17.0161 14.6987C17.1258 14.589 17.1258 14.4113 17.0161 14.3016L15.6981 12.9836C15.5885 12.874 15.4107 12.874 15.3011 12.9836Z" fill="white"/>
<path d="M15.6981 18.8847C15.5885 18.7751 15.4107 18.7751 15.3011 18.8847L13.9831 20.2027C13.8735 20.3124 13.8735 20.4901 13.9831 20.5998L15.3011 21.9177C15.4107 22.0274 15.5885 22.0274 15.6981 21.9177L17.0161 20.5998C17.1258 20.4901 17.1258 20.3124 17.0161 20.2027L15.6981 18.8847Z" fill="white"/>
<path d="M14.0628 17.2492L11.4316 14.6179C11.3664 14.5527 11.3664 14.447 11.4316 14.3818L14.0628 11.7506C14.174 11.6394 14.174 11.4591 14.0628 11.3479L12.7505 10.0356C12.6393 9.92435 12.459 9.92435 12.3478 10.0356L8.08487 14.2985C7.97366 14.4097 7.97366 14.59 8.08487 14.7013L12.3478 18.9642C12.459 19.0754 12.6393 19.0754 12.7505 18.9642L14.0629 17.6519C14.1741 17.5407 14.1741 17.3604 14.0628 17.2492Z" fill="white"/>
<path d="M22.9149 14.2987L18.652 10.0358C18.5408 9.92459 18.3605 9.92459 18.2492 10.0358L16.9369 11.3481C16.8257 11.4593 16.8257 11.6396 16.9369 11.7508L19.5681 14.382C19.6333 14.4473 19.6333 14.5529 19.5681 14.6181L16.9369 17.2494C16.8257 17.3606 16.8257 17.5409 16.9369 17.6521L18.2492 18.9644C18.3604 19.0756 18.5407 19.0756 18.652 18.9644L22.9149 14.7015C23.0261 14.5903 23.0261 14.41 22.9149 14.2987Z" fill="white"/>
</g>
<defs>
<clipPath id="clip0_75_2122">
<rect width="15" height="15" fill="white" transform="translate(8 7)"/>
</clipPath>
</defs>
</svg>
