<svg width="30" height="30" viewBox="0 0 30 30" fill="none" xmlns="http://www.w3.org/2000/svg">
<rect width="30" height="30" rx="15" fill="white" fill-opacity="0.3"/>
<path fill-rule="evenodd" clip-rule="evenodd" d="M15.4271 12.201L18.1406 10.6181V13.784L15.4271 12.201ZM18.1407 18.9849L14.5226 21.0955L10.9045 18.985V15.2915L14.5226 17.402L18.1407 15.2914V18.9849ZM10.9045 10.6181L13.6181 12.201L10.9045 13.7839V10.6181ZM14.9749 12.9548L17.6884 14.5377L14.9749 16.1206V12.9548ZM14.0704 16.1206L11.3568 14.5377L14.0704 12.9548V16.1206ZM17.6885 9.8643L14.5226 11.6734L11.3568 9.8643L14.5226 7.9799L17.6885 9.8643ZM10 9.5628V19.4372L14.5226 22L19.0452 19.4372V9.5628L14.5226 7L10 9.5628Z" fill="white"/>
</svg>
