<svg width="37" height="37" viewBox="0 0 37 37" fill="none" xmlns="http://www.w3.org/2000/svg">
<circle cx="18.5" cy="18.5" r="18.5" fill="white"/>
<g clip-path="url(#clip0_83_2626)">
<path d="M24.6059 10.1384C24.975 9.99746 25.3716 10.2759 25.3544 10.6706C25.216 13.8515 24.1211 16.5936 24.1211 16.5936L19.9854 13.6917C21.6343 11.7057 23.6295 10.5115 24.6059 10.1384Z" fill="#D26437"/>
<path d="M21.3638 14.6591C22.4385 12.9088 24.0595 11.2377 24.5728 10.9395C24.7808 10.8186 24.9635 11.1143 24.9169 11.5041C24.669 13.5786 24.2195 15.442 23.9426 16.4686L21.3638 14.6591Z" fill="#B44632"/>
<path d="M12.3941 10.1384C12.025 9.99746 11.6284 10.2759 11.6456 10.6706C11.7839 13.8515 12.8789 16.5936 12.8789 16.5936L17.0146 13.6917C15.3657 11.7057 13.3705 10.5115 12.3941 10.1384Z" fill="#D26437"/>
<path d="M15.6361 14.6591C14.5614 12.9088 12.9404 11.2377 12.4272 10.9395C12.2191 10.8186 12.0364 11.1143 12.083 11.5041C12.3309 13.5786 12.7804 15.442 13.0573 16.4686L15.6361 14.6591Z" fill="#B44632"/>
<path d="M18.5001 26.8987C19.4087 26.8987 20.1453 26.4077 20.1453 25.802C20.1453 25.1963 19.4087 24.7053 18.5001 24.7053C17.5915 24.7053 16.855 25.1963 16.855 25.802C16.855 26.4077 17.5915 26.8987 18.5001 26.8987Z" fill="#EBC9A0"/>
<path d="M16.5806 25.5277C14.6613 24.431 11.4815 23.2369 11.4815 23.2369L11.7867 22.3214C11.658 22.2603 10.7769 22.2488 10 22.5116L10.8226 21.1406H16.5806V25.5277Z" fill="#EBC9A0"/>
<path d="M20.4194 25.5277C22.3388 24.431 25.5185 23.2369 25.5185 23.2369L25.2134 22.3214C25.342 22.2603 26.2232 22.2488 27.0001 22.5116L26.1775 21.1406H20.4194V25.5277Z" fill="#EBC9A0"/>
<path d="M18.5 13.189C22.4969 13.189 25.9281 17.1936 26.9876 22.4496C26.9918 22.4703 26.9959 22.4909 27 22.5115C27 22.5115 24.9778 20.4208 22.7843 21.5347C21.9708 21.9478 21.5847 22.8554 21.5847 23.8471C21.5847 25.4915 20.2665 26.4013 18.705 25.7693C18.5726 25.7157 18.4274 25.7157 18.295 25.7693C16.7334 26.4014 15.4153 25.4915 15.4153 23.8471C15.4153 22.8554 15.0291 21.9478 14.2157 21.5347C12.0222 20.4208 10 22.5115 10 22.5115C10.0041 22.4909 10.0082 22.4703 10.0124 22.4496C11.0719 17.1936 14.5031 13.189 18.5 13.189Z" fill="#EB874B"/>
<path d="M15.6208 20.8664C15.093 20.8664 14.6611 20.4346 14.6611 19.9067V19.3584C14.6611 18.8305 15.093 18.3987 15.6208 18.3987C16.1486 18.3987 16.5805 18.8305 16.5805 19.3584V19.9067C16.5805 20.4346 16.1486 20.8664 15.6208 20.8664Z" fill="#4B3F4E"/>
<path d="M15.621 18.3987C15.5741 18.3987 15.529 18.406 15.4839 18.4126V19.7696C15.4839 20.0725 15.7294 20.318 16.0323 20.318C16.3351 20.318 16.5807 20.0725 16.5807 19.7696V19.3584C16.5807 18.8305 16.1488 18.3987 15.621 18.3987Z" fill="#5D5360"/>
<path d="M15.6208 19.4957C15.8479 19.4957 16.032 19.3115 16.032 19.0844C16.032 18.8572 15.8479 18.6731 15.6208 18.6731C15.3936 18.6731 15.2095 18.8572 15.2095 19.0844C15.2095 19.3115 15.3936 19.4957 15.6208 19.4957Z" fill="white"/>
<path d="M21.3791 20.8664C20.8513 20.8664 20.4194 20.4346 20.4194 19.9067V19.3584C20.4194 18.8305 20.8513 18.3987 21.3791 18.3987C21.9069 18.3987 22.3388 18.8305 22.3388 19.3584V19.9067C22.3388 20.4346 21.9069 20.8664 21.3791 20.8664Z" fill="#4B3F4E"/>
<path d="M21.3793 18.3987C21.3324 18.3987 21.2873 18.406 21.2422 18.4126V19.7696C21.2422 20.0725 21.4877 20.318 21.7906 20.318C22.0934 20.318 22.339 20.0725 22.339 19.7696V19.3584C22.339 18.8305 21.9071 18.3987 21.3793 18.3987Z" fill="#5D5360"/>
<path d="M21.3791 19.4957C21.6062 19.4957 21.7903 19.3115 21.7903 19.0844C21.7903 18.8572 21.6062 18.6731 21.3791 18.6731C21.1519 18.6731 20.9678 18.8572 20.9678 19.0844C20.9678 19.3115 21.1519 19.4957 21.3791 19.4957Z" fill="white"/>
<path d="M18.2256 25.7946C18.2493 25.7856 18.2731 25.7765 18.2969 25.767C18.4271 25.7152 18.5725 25.7152 18.7026 25.767C18.7265 25.7765 18.7503 25.7856 18.774 25.7946V24.7051H18.2256L18.2256 25.7946Z" fill="#D26437"/>
<path d="M18.4842 23.0601C19.0987 23.0601 19.5968 23.4672 19.5968 23.9695C19.5968 24.4538 19.1292 24.7089 18.7917 24.8975C18.5961 25.0068 18.3723 25.0068 18.1767 24.8975C17.8392 24.7089 17.3716 24.4538 17.3716 23.9695C17.3715 23.4672 17.8697 23.0601 18.4842 23.0601Z" fill="#5D5360"/>
<path d="M18.7567 24.874C18.4193 24.6316 17.9517 24.3037 17.9517 23.6809C17.9517 23.4768 18.0059 23.2879 18.0933 23.1208C17.6724 23.2505 17.3716 23.5801 17.3716 23.9695C17.3716 24.4539 17.8392 24.7089 18.1767 24.8975C18.3723 25.0068 18.5961 25.0068 18.7917 24.8975C18.7932 24.8967 18.7949 24.8957 18.7965 24.8948C18.7834 24.8868 18.7696 24.8833 18.7567 24.874Z" fill="#4B3F4E"/>
<path d="M18.5 13.189L17.9668 13.2156C14.2009 13.5531 11.0244 17.4291 10.0124 22.4496C10.0082 22.4702 10.0041 22.4909 10 22.5115C10 22.5115 11.632 20.8259 13.5539 21.2902C13.7943 14.4613 18.0537 13.189 18.5 13.189Z" fill="#D26437"/>
</g>
<defs>
<clipPath id="clip0_83_2626">
<rect width="17" height="17" fill="white" transform="translate(10 10)"/>
</clipPath>
</defs>
</svg>
