<svg width="40" height="40" viewBox="0 0 40 40" fill="none" xmlns="http://www.w3.org/2000/svg">
<rect width="40" height="40" rx="20" fill="white" fill-opacity="0.3"/>
<g clip-path="url(#clip0_75_2206)">
<path d="M13.2034 22.8591L11.3119 26.6415C11.221 26.8232 11.2308 27.0391 11.3374 27.2119C11.4444 27.3844 11.6327 27.4896 11.8358 27.4896H14.6811L16.3882 29.7657C16.4992 29.9142 16.6733 30.0001 16.8565 30.0001C17.0999 30.0001 17.2917 29.8548 17.3808 29.6763L19.1632 26.1114C16.7534 25.881 14.6288 24.6591 13.2034 22.8591Z" fill="white"/>
<path d="M28.6774 26.6415L26.7859 22.8591C25.3606 24.6591 23.236 25.881 20.8262 26.1114L22.6087 29.6763C22.6977 29.8548 22.8895 30.0001 23.1328 30.0001C23.3161 30.0001 23.4904 29.9142 23.6013 29.7657L25.3083 27.4896H28.1536C28.3567 27.4896 28.545 27.3844 28.6519 27.2119C28.7586 27.0391 28.7684 26.8232 28.6774 26.6415Z" fill="white"/>
<path d="M20.9755 15.7673L19.9948 14.2007L19.0144 15.7673C18.934 15.8958 18.8069 15.9881 18.6599 16.0249L16.8672 16.4733L18.054 17.89C18.1514 18.0061 18.1999 18.1555 18.1894 18.3067L18.0616 20.1502L19.7757 19.4593C19.8571 19.4265 20.0238 19.3827 20.2137 19.4593L21.9279 20.1502L21.8004 18.3067C21.79 18.1555 21.8385 18.0061 21.9359 17.89L23.1227 16.4733L21.3299 16.0249C21.183 15.9881 21.0559 15.8958 20.9755 15.7673Z" fill="white"/>
<path d="M27.4846 17.4896C27.4846 13.3598 24.1248 10 19.995 10C15.8652 10 12.5054 13.3598 12.5054 17.4896C12.5054 21.6193 15.8652 24.9792 19.995 24.9792C24.1248 24.9792 27.4846 21.6194 27.4846 17.4896ZM24.6224 16.5083L22.986 18.4615L23.1618 21.0033C23.1757 21.2047 23.0851 21.3991 22.9218 21.5178C22.7584 21.6364 22.5455 21.6626 22.3583 21.5872L19.995 20.6346L17.6317 21.5872C17.5684 21.6127 17.3162 21.6978 17.0682 21.5178C16.9049 21.3991 16.8143 21.2047 16.8282 21.0033L17.0043 18.4615L15.3679 16.5085C15.2382 16.3536 15.1973 16.143 15.2597 15.9511C15.3221 15.7591 15.479 15.6126 15.6749 15.5637L18.1465 14.9454L19.4983 12.7855C19.6054 12.6144 19.7931 12.5105 19.995 12.5105C20.1969 12.5105 20.3846 12.6144 20.4917 12.7855L21.8438 14.9454L24.3154 15.5637C24.5113 15.6126 24.6682 15.7591 24.7306 15.9511C24.793 16.143 24.7521 16.3536 24.6224 16.5083Z" fill="white"/>
</g>
<defs>
<clipPath id="clip0_75_2206">
<rect width="20" height="20" fill="white" transform="translate(10 10)"/>
</clipPath>
</defs>
</svg>
