<svg width="40" height="40" viewBox="0 0 40 40" fill="none" xmlns="http://www.w3.org/2000/svg">
<rect width="40" height="40" rx="20" fill="white" fill-opacity="0.3"/>
<path d="M22.0691 14.4733C22.9939 15.0531 23.6423 16.0342 23.7604 17.1731C24.1375 17.3494 24.5561 17.4507 24.9999 17.4507C26.62 17.4507 27.9331 16.1376 27.9331 14.5177C27.9331 12.8976 26.62 11.5845 24.9999 11.5845C23.3952 11.585 22.0936 12.8746 22.0691 14.4733ZM20.1475 20.479C21.7676 20.479 23.0807 19.1657 23.0807 17.5458C23.0807 15.9259 21.7674 14.6128 20.1475 14.6128C18.5276 14.6128 17.2138 15.9262 17.2138 17.546C17.2138 19.1659 18.5276 20.479 20.1475 20.479ZM21.3917 20.6789H18.9028C16.8319 20.6789 15.1471 22.364 15.1471 24.4348V27.4786L15.1549 27.5263L15.3645 27.592C17.3408 28.2095 19.0578 28.4154 20.471 28.4154C23.2312 28.4154 24.8312 27.6284 24.9297 27.5782L25.1257 27.4791H25.1466V24.4348C25.1474 22.364 23.4626 20.6789 21.3917 20.6789ZM26.2446 17.6509H23.7749C23.7482 18.639 23.3263 19.5288 22.6592 20.1688C24.4999 20.7161 25.8468 22.4231 25.8468 24.4393V25.3773C28.2853 25.288 29.6905 24.5968 29.7831 24.5504L29.979 24.4511H30V21.4063C30 19.3356 28.3152 17.6509 26.2446 17.6509ZM15.0006 17.4512C15.5744 17.4512 16.1083 17.2837 16.5606 16.9984C16.7044 16.0607 17.207 15.2413 17.9251 14.6832C17.9281 14.6283 17.9334 14.5739 17.9334 14.5185C17.9334 12.8983 16.62 11.5852 15.0006 11.5852C13.3803 11.5852 12.0674 12.8983 12.0674 14.5185C12.0674 16.1378 13.3803 17.4512 15.0006 17.4512ZM17.6348 20.1688C16.9709 19.5321 16.5506 18.647 16.5199 17.6648C16.4283 17.6581 16.3377 17.6509 16.2444 17.6509H13.7556C11.6848 17.6509 10 19.3356 10 21.4063V24.4506L10.0077 24.4975L10.2174 24.5636C11.8028 25.0586 13.2178 25.2867 14.4468 25.3586V24.4393C14.4473 22.4231 15.7936 20.7166 17.6348 20.1688Z" fill="white"/>
</svg>
