<svg width="40" height="40" viewBox="0 0 40 40" fill="none" xmlns="http://www.w3.org/2000/svg">
<rect width="40" height="40" rx="20" fill="white" fill-opacity="0.3"/>
<g clip-path="url(#clip0_75_2194)">
<path d="M10 27.88C10 28.102 10.1253 28.3047 10.3239 28.4041L13.5547 30.0001V25.6748L10 23.917V27.88Z" fill="white"/>
<path d="M14.7266 25.6747V30L17.9184 28.4041C18.1169 28.3046 18.2422 28.1021 18.2422 27.8799V26.4843H21.7578V27.8799C21.7578 28.1021 21.8831 28.3046 22.0818 28.4041L25.2734 30V25.6747L21.7578 23.9169V25.3125H18.2422V23.9167L14.7266 25.6747Z" fill="white"/>
<path d="M14.4028 20.687C14.2377 20.6045 14.0436 20.6045 13.8787 20.687L10.0693 22.6412L14.1407 24.6573L18.173 22.6412L16.462 21.7542L18.1043 18.7591L19.4141 19.4532V15.0889L15.8985 13.3311V17.2941C15.8985 17.5161 16.0238 17.7187 16.2224 17.8182L17.0553 18.2348L15.4214 21.215L14.4028 20.687Z" fill="white"/>
<path d="M26.4453 30L29.6762 28.4041C29.8747 28.3046 30 28.1021 30 27.8799V23.9167L26.4453 25.6747V30Z" fill="white"/>
<path d="M24.1016 17.294V13.3308L20.5859 15.0888V19.4531L21.8959 18.7591L23.5381 21.7543L21.8271 22.6411L25.8594 24.6573L29.9307 22.6411L26.1215 20.6868C25.9564 20.6042 25.7623 20.6042 25.5974 20.6868L24.5787 21.2149L22.9448 18.2347L23.7778 17.8181C23.9763 17.7186 24.1016 17.516 24.1016 17.294Z" fill="white"/>
<path d="M19.7381 10.0619L15.9678 12.0552L20.0001 14.0713L24.0323 12.0552L20.2622 10.0618C20.0971 9.97938 19.903 9.97938 19.7381 10.0619Z" fill="white"/>
</g>
<defs>
<clipPath id="clip0_75_2194">
<rect width="20" height="20" fill="white" transform="translate(10 10)"/>
</clipPath>
</defs>
</svg>
