<svg width="30" height="30" viewBox="0 0 30 30" fill="none" xmlns="http://www.w3.org/2000/svg">
<path d="M15 29C22.732 29 29 22.732 29 15C29 7.26801 22.732 1 15 1C7.26801 1 1 7.26801 1 15C1 22.732 7.26801 29 15 29Z" fill="#262964"/>
<path d="M15 27C21.6274 27 27 21.6274 27 15C27 8.37258 21.6274 3 15 3C8.37258 3 3 8.37258 3 15C3 21.6274 8.37258 27 15 27Z" fill="#555ABE"/>
<path d="M19.1148 12.2638C18.8224 12.0967 18.4464 12.0967 18.1123 12.2638L15.7728 13.6423L14.1853 14.5196L11.8877 15.8982C11.5953 16.0653 11.2193 16.0653 10.8851 15.8982L9.08875 14.812C8.79633 14.6449 8.58742 14.3107 8.58742 13.9348V11.846C8.58742 11.5118 8.7545 11.1776 9.08875 10.9687L10.8851 9.92433C11.1775 9.75725 11.5535 9.75725 11.8877 9.92433L13.684 11.0105C13.9764 11.1776 14.1853 11.5118 14.1853 11.8877V13.2663L15.7728 12.3473V10.9269C15.7728 10.5927 15.6058 10.2585 15.2715 10.0497L11.9295 8.08625C11.6371 7.91917 11.2611 7.91917 10.9269 8.08625L7.50133 10.0915C7.16717 10.2586 7 10.5928 7 10.927V14.8539C7 15.1881 7.16708 15.5223 7.50133 15.7312L10.8852 17.6946C11.1776 17.8617 11.5536 17.8617 11.8878 17.6946L14.1854 16.3578L15.7729 15.4387L18.0706 14.1018C18.363 13.9348 18.739 13.9348 19.0732 14.1018L20.8695 15.1463C21.1619 15.3133 21.3708 15.6476 21.3708 16.0235V18.1123C21.3708 18.4464 21.2038 18.7807 20.8695 18.9895L19.1149 20.0339C18.8225 20.201 18.4465 20.201 18.1123 20.0339L16.316 18.9895C16.0236 18.8224 15.8147 18.4882 15.8147 18.1123V16.7754L14.2272 17.6945V19.0731C14.2272 19.4073 14.3943 19.7415 14.7285 19.9503L18.1123 21.9137C18.4048 22.0808 18.7808 22.0808 19.1149 21.9137L22.4988 19.9503C22.7912 19.7833 23.0001 19.449 23.0001 19.0731V15.1044C23.0001 14.7703 22.833 14.436 22.4988 14.2272L19.1148 12.2638Z" fill="white"/>
</svg>
