<svg width="30" height="30" viewBox="0 0 30 30" fill="none" xmlns="http://www.w3.org/2000/svg">
<rect width="30" height="30" rx="15" fill="white" fill-opacity="0.3"/>
<path d="M19.1148 12.3028C18.8224 12.1357 18.4464 12.1357 18.1123 12.3028L15.7728 13.6814L14.1853 14.5586L11.8877 15.9372C11.5953 16.1043 11.2193 16.1043 10.8851 15.9372L9.08875 14.8511C8.79633 14.684 8.58742 14.3497 8.58742 13.9738V11.8851C8.58742 11.5509 8.7545 11.2166 9.08875 11.0078L10.8851 9.9634C11.1775 9.79631 11.5535 9.79631 11.8877 9.9634L13.684 11.0496C13.9764 11.2166 14.1853 11.5509 14.1853 11.9268V13.3054L15.7728 12.3863V10.966C15.7728 10.6318 15.6058 10.2976 15.2715 10.0887L11.9295 8.12531C11.6371 7.95823 11.2611 7.95823 10.9269 8.12531L7.50133 10.1306C7.16717 10.2976 7 10.6319 7 10.9661V14.893C7 15.2271 7.16708 15.5614 7.50133 15.7702L10.8852 17.7336C11.1776 17.9007 11.5536 17.9007 11.8878 17.7336L14.1854 16.3968L15.7729 15.4777L18.0706 14.1409C18.363 13.9738 18.739 13.9738 19.0732 14.1409L20.8695 15.1853C21.1619 15.3524 21.3708 15.6866 21.3708 16.0626V18.1513C21.3708 18.4855 21.2038 18.8197 20.8695 19.0286L19.1149 20.073C18.8225 20.2401 18.4465 20.2401 18.1123 20.073L16.316 19.0286C16.0236 18.8615 15.8147 18.5272 15.8147 18.1513V16.8145L14.2272 17.7336V19.1121C14.2272 19.4463 14.3943 19.7806 14.7285 19.9894L18.1123 21.9528C18.4048 22.1199 18.7808 22.1199 19.1149 21.9528L22.4988 19.9894C22.7912 19.8223 23.0001 19.4881 23.0001 19.1121V15.1435C23.0001 14.8093 22.833 14.4751 22.4988 14.2662L19.1148 12.3028Z" fill="white"/>
</svg>
