<svg width="37" height="37" viewBox="0 0 37 37" fill="none" xmlns="http://www.w3.org/2000/svg">
<circle cx="18.5" cy="18.5" r="18.5" fill="white"/>
<path d="M18.5 26.9998C18.2954 26.9997 18.0967 26.941 17.9345 26.8327C17.9345 26.8327 17.2248 26.3679 15.263 25.4333C12.2607 24.0038 10.8798 22.2885 10.497 19.5132C10.2008 17.3648 10.0085 12.8775 10.0008 12.6869C9.99533 12.5723 10.0181 12.4579 10.0676 12.3515C10.1171 12.2451 10.1921 12.1492 10.2877 12.07C10.3833 11.9909 10.4972 11.9304 10.6219 11.8926C10.7466 11.8549 10.8791 11.8407 11.0105 11.851C11.0298 11.851 13.0377 11.9981 14.7649 11.5768C15.9024 11.2916 16.967 10.8207 17.9018 10.1892C18.0694 10.067 18.2812 10 18.5 10C18.7187 10 18.9305 10.067 19.0981 10.1892C20.0319 10.8247 21.0966 11.2996 22.235 11.5885C23.966 12.0098 25.9701 11.8627 25.9913 11.8627C26.1227 11.8523 26.2551 11.8665 26.3797 11.9043C26.5043 11.9421 26.6181 12.0026 26.7135 12.0818C26.809 12.161 26.8839 12.257 26.9331 12.3634C26.9824 12.4697 27.0049 12.5841 26.9991 12.6986C26.9991 12.8892 26.8068 17.3799 26.5029 19.5249C26.1182 22.3002 24.7392 24.0155 21.7388 25.4433C19.777 26.3779 19.0712 26.841 19.0635 26.846C18.9 26.9493 18.7021 27.0033 18.5 26.9998ZM11.8933 13.4928C11.9607 14.9323 12.128 17.7945 12.3453 19.3226C12.6146 21.2753 13.3243 22.6663 16.1593 24.0189C17.3133 24.5656 18.0557 24.9635 18.5077 25.2193C18.9596 24.9635 19.7078 24.5656 20.856 24.0189C23.6929 22.6697 24.393 21.2753 24.6546 19.3226C24.8719 17.7945 25.0393 14.9323 25.1066 13.4928C23.9688 13.5021 22.8346 13.3812 21.7331 13.1333C20.5812 12.8449 19.4898 12.3985 18.5 11.8109C17.5101 12.3985 16.4187 12.8449 15.2669 13.1333C14.1654 13.3812 13.0311 13.5021 11.8933 13.4928Z" fill="#3A4DE9"/>
</svg>
